<svg width="44" height="57" viewBox="0 0 44 57" fill="none" xmlns="http://www.w3.org/2000/svg">
<g clip-path="url(#clip0_1_2032)">
<path d="M40.7198 9.92479C40.1225 9.31051 39.4016 8.83817 38.6079 8.54093C37.8142 8.24368 36.9669 8.12875 36.1254 8.20419C36.2092 7.20647 36.0471 6.20311 35.6541 5.28688C35.2612 4.37064 34.65 3.57108 33.877 2.96212C33.1041 2.35315 32.1944 1.95443 31.232 1.80281C30.2696 1.65119 29.2856 1.75155 28.3709 2.09464C27.4562 2.43772 26.6403 3.01244 25.9987 3.76569C25.3571 4.51893 24.9105 5.42638 24.7001 6.40416C24.4897 7.38194 24.5224 8.39849 24.7951 9.35985C25.0678 10.3212 25.5717 11.1964 26.2602 11.9044C26.2874 11.9324 26.3146 11.9604 26.3432 11.9884L11.553 27.1992C11.5258 27.1705 11.4985 27.1432 11.4713 27.1145C10.7831 26.4057 9.93215 25.8869 8.99727 25.6059C8.06239 25.325 7.07373 25.2911 6.12273 25.5073C5.17172 25.7235 4.28907 26.1828 3.5564 26.8429C2.82372 27.5029 2.26469 28.3423 1.93099 29.2835C1.59729 30.2246 1.49969 31.2372 1.64723 32.2274C1.79477 33.2176 2.18268 34.1536 2.77509 34.9488C3.3675 35.7439 4.14527 36.3726 5.03649 36.7767C5.92771 37.1807 6.9036 37.3471 7.87391 37.2605C7.79002 38.2582 7.95201 39.2615 8.3449 40.1778C8.7378 41.0941 9.34891 41.8937 10.1218 42.5027C10.8946 43.1117 11.8043 43.5106 12.7666 43.6623C13.729 43.814 14.713 43.7138 15.6278 43.3708C16.5425 43.0278 17.3584 42.4532 18.0001 41.7001C18.6417 40.9469 19.0885 40.0395 19.299 39.0618C19.5095 38.084 19.4769 37.0675 19.2044 36.1061C18.9319 35.1447 18.4281 34.2695 17.7396 33.5614C17.7124 33.5327 17.6852 33.5054 17.658 33.4774L32.4469 18.2653C32.4741 18.294 32.5013 18.3227 32.5285 18.3507C33.6148 19.468 35.0882 20.0957 36.6244 20.0957C37.3851 20.0957 38.1384 19.9416 38.8411 19.6422C39.5439 19.3428 40.1825 18.9039 40.7204 18.3507C41.2583 17.7974 41.6849 17.1406 41.976 16.4178C42.2671 15.6949 42.417 14.9202 42.417 14.1377C42.417 13.3553 42.2671 12.5806 41.976 11.8577C41.6849 11.1348 41.2583 10.478 40.7204 9.92479H40.7198Z" fill="url(#paint0_linear_1_2032)"/>
</g>
<defs>
<linearGradient id="paint0_linear_1_2032" x1="21.9987" y1="1.73413" x2="21.9987" y2="43.7311" gradientUnits="userSpaceOnUse">
<stop stop-color="#FFA800"/>
<stop offset="1" stop-color="#B77900"/>
</linearGradient>
<clipPath id="clip0_1_2032">
<rect x="0.22229" y="0.33313" width="43.5556" height="56" rx="14" fill="white"/>
</clipPath>
</defs>
</svg>
