<svg width="52" height="66" viewBox="0 0 52 66" fill="none" xmlns="http://www.w3.org/2000/svg">
<g clip-path="url(#clip0_1_1941)">
<path d="M40.1437 6.01834L22.793 1.94154C22.2797 1.83701 21.7664 1.94154 21.3557 2.25514C20.945 2.56874 20.7397 3.09141 20.7397 3.61408V5.96608H12.0644C11.1404 5.96608 10.3704 6.75008 10.3704 7.69088V45.7933C10.3704 46.7341 11.1404 47.5181 12.0644 47.5181H20.6884V49.8701C20.6884 50.3928 20.945 50.8632 21.3044 51.229C21.6124 51.4904 21.9717 51.5949 22.331 51.5949C22.4337 51.5949 22.5877 51.5949 22.6904 51.5426L40.041 47.4658C40.811 47.309 41.3244 46.5773 41.3244 45.7933V7.69088C41.427 6.85461 40.9137 6.17514 40.1437 6.01834ZM20.6884 44.0685H13.7584V9.36341H20.6884V44.0685ZM26.643 28.5453C25.6677 28.5453 24.8464 27.709 24.8464 26.7159C24.8464 25.7229 25.6677 24.8866 26.643 24.8866C27.6184 24.8866 28.4397 25.7229 28.4397 26.7159C28.4397 27.709 27.6184 28.5453 26.643 28.5453Z" fill="url(#paint0_linear_1_1941)"/>
</g>
<defs>
<linearGradient id="paint0_linear_1_1941" x1="25.8539" y1="1.90234" x2="25.8539" y2="51.5949" gradientUnits="userSpaceOnUse">
<stop stop-color="#D36500"/>
<stop offset="1" stop-color="#FF9900"/>
</linearGradient>
<clipPath id="clip0_1_1941">
<rect x="0.257874" y="0.58252" width="51.3333" height="65.3333" rx="14" fill="white"/>
</clipPath>
</defs>
</svg>
