<svg width="18" height="18" viewBox="0 0 18 18" fill="none" xmlns="http://www.w3.org/2000/svg">
<path fill-rule="evenodd" clip-rule="evenodd" d="M17.5333 8.98818C17.5333 9.56527 17.4746 10.1416 17.3592 10.7033C17.2467 11.2517 17.08 11.7901 16.8617 12.3048C16.6483 12.8104 16.3837 13.2976 16.0745 13.752C15.77 14.2035 15.4191 14.627 15.0337 15.0131C14.6474 15.3976 14.2224 15.7475 13.7711 16.0534C13.3152 16.3604 12.8273 16.6246 12.3215 16.8389C11.806 17.0561 11.2664 17.2226 10.7184 17.3349C10.1559 17.4506 9.57755 17.5096 8.99962 17.5096C8.42126 17.5096 7.8429 17.4506 7.28121 17.3349C6.73244 17.2226 6.19283 17.0561 5.67779 16.8389C5.17195 16.6246 4.68357 16.3604 4.22772 16.0534C3.77645 15.7475 3.35143 15.3976 2.96599 15.0131C2.58015 14.627 2.22928 14.2035 1.92427 13.752C1.61675 13.2976 1.35172 12.8104 1.13755 12.3048C0.919183 11.7901 0.752114 11.2517 0.639188 10.7033C0.525025 10.1416 0.466675 9.56527 0.466675 8.98818C0.466675 8.41065 0.524992 7.83313 0.639221 7.27261C0.752147 6.7242 0.919216 6.18496 1.13759 5.67111C1.35175 5.16516 1.61678 4.67751 1.9243 4.22313C2.22931 3.77127 2.58018 3.3485 2.96602 2.96195C3.35146 2.57746 3.77648 2.2284 4.22775 1.923C4.6836 1.61466 5.17198 1.35047 5.67783 1.13575C6.19286 0.918096 6.73244 0.751269 7.28124 0.639772C7.84294 0.524941 8.4213 0.466675 8.99966 0.466675C9.57758 0.466675 10.1559 0.524941 10.7185 0.639772C11.2664 0.751302 11.806 0.918129 12.3215 1.13575C12.8273 1.35044 13.3153 1.61466 13.7711 1.923C14.2224 2.2284 14.6475 2.57746 15.0337 2.96195C15.4191 3.3485 15.77 3.77127 16.0746 4.22313C16.3837 4.67751 16.6483 5.16519 16.8617 5.67111C17.08 6.18496 17.2467 6.7242 17.3592 7.27261C17.4746 7.83313 17.5333 8.41065 17.5333 8.98818ZM5.89026 2.40605C3.85805 3.36433 2.34131 5.23422 1.86836 7.48775C2.06048 7.48942 5.0973 7.52771 8.59622 6.59938C7.33492 4.36166 5.98735 2.53549 5.89026 2.40605ZM9.2 7.71995C5.44774 8.84169 1.84711 8.76097 1.71795 8.75601C1.71585 8.83422 1.71211 8.90993 1.71211 8.98817C1.71211 10.8576 2.41839 12.5619 3.57929 13.8506C3.57678 13.8468 5.57108 10.3138 9.50377 9.04393C9.59876 9.01232 9.69546 8.984 9.79128 8.95655C9.60838 8.54298 9.40875 8.12855 9.2 7.71995ZM13.8124 3.52659C12.5293 2.39689 10.8447 1.71164 8.9996 1.71164C8.40748 1.71164 7.83286 1.78321 7.28242 1.91552C7.39157 2.062 8.76042 3.87529 10.0067 6.16041C12.7565 5.13103 13.7944 3.55321 13.8124 3.52659ZM10.288 10.1624C10.2718 10.1677 10.2556 10.1724 10.2397 10.1782C5.93997 11.675 4.53583 14.6914 4.52064 14.7244C5.75781 15.6851 7.30956 16.2647 8.99965 16.2647C10.0088 16.2647 10.9701 16.0595 11.8448 15.688C11.7368 15.0522 11.3135 12.8237 10.288 10.1624ZM13.0719 15.0231C14.7082 13.9205 15.8703 12.1696 16.1945 10.1415C16.0445 10.0933 14.0057 9.44874 11.6535 9.82531C12.6093 12.4484 12.9977 14.5846 13.0719 15.0231ZM10.5676 7.24475C10.7368 7.59178 10.9006 7.94498 11.0518 8.29995C11.1056 8.42729 11.1581 8.55212 11.2093 8.67693C13.7128 8.36235 16.1792 8.89161 16.2846 8.91323C16.2679 7.18815 15.65 5.60493 14.6275 4.36543C14.6137 4.38494 13.4449 6.07136 10.5676 7.24475Z" fill="white"/>
</svg>
