<svg width="162" height="48" viewBox="0 0 162 48" fill="none" xmlns="http://www.w3.org/2000/svg">
<g clip-path="url(#clip0_1_2097)">
<path d="M156 0H6.0004C2.68671 0 0.000427246 2.68628 0.000427246 5.99997V41.9998C0.000427246 45.3135 2.68671 47.9998 6.0004 47.9998H156C159.313 47.9998 162 45.3135 162 41.9998V5.99997C162 2.68628 159.313 0 156 0Z" fill="black"/>
<path d="M156 0.959938C157.336 0.961482 158.617 1.49301 159.562 2.43791C160.507 3.38281 161.038 4.66391 161.04 6.00015V42C161.038 43.3362 160.507 44.6173 159.562 45.5622C158.617 46.5071 157.336 47.0386 156 47.0402H6.0004C4.66414 47.0387 3.38307 46.5071 2.43821 45.5622C1.49336 44.6173 0.961899 43.3362 0.960422 42V6.00015C0.961877 4.66389 1.49333 3.38278 2.43819 2.43787C3.38305 1.49297 4.66414 0.961457 6.0004 0.959938H156ZM156 0.000183105H6.0004C4.41054 0.0048368 2.88712 0.638469 1.76292 1.76267C0.638713 2.88688 0.00508094 4.41029 0.000427246 6.00015L0.000427246 42C0.00508094 43.5898 0.638713 45.1132 1.76292 46.2374C2.88712 47.3617 4.41054 47.9953 6.0004 47.9999H156C157.59 47.9953 159.113 47.3617 160.237 46.2374C161.361 45.1132 161.995 43.5898 162 42V6.00015C161.995 4.41029 161.361 2.88688 160.237 1.76267C159.113 0.638469 157.59 0.0048368 156 0.000183105Z" fill="#A6A6A6"/>
<path d="M56.9022 12.2919C56.924 12.7322 56.856 13.1724 56.7023 13.5856C56.5485 13.9988 56.3123 14.3764 56.008 14.6954C55.6669 15.0491 55.255 15.3268 54.7993 15.5104C54.3435 15.6939 53.8541 15.7792 53.3631 15.7606C52.8689 15.765 52.3789 15.6706 51.9218 15.483C51.4646 15.2953 51.0496 15.0181 50.7011 14.6678C50.3527 14.3174 50.0777 13.9009 49.8925 13.4428C49.7073 12.9847 49.6155 12.4942 49.6226 12.0001C49.6156 11.5059 49.7074 11.0154 49.8926 10.5573C50.0778 10.0991 50.3528 9.68263 50.7012 9.33224C51.0497 8.98185 51.4647 8.70464 51.9218 8.51688C52.3789 8.32913 52.8689 8.23462 53.3631 8.23891C53.8711 8.23737 54.3741 8.34009 54.8409 8.54071C55.2744 8.71644 55.6603 8.99208 55.9671 9.34518L55.3342 9.97854C55.093 9.69468 54.7899 9.47003 54.4481 9.32191C54.1063 9.17379 53.7351 9.10617 53.3631 9.12427C52.9886 9.12233 52.6175 9.19599 52.2722 9.34084C51.9268 9.4857 51.6143 9.69876 51.3532 9.96727C51.0922 10.2358 50.888 10.5542 50.7529 10.9035C50.6178 11.2528 50.5546 11.6258 50.5671 12.0001C50.5582 12.5607 50.7159 13.1113 51.0204 13.5822C51.3248 14.0531 51.7622 14.4229 52.2771 14.6448C52.792 14.8668 53.3612 14.9308 53.9126 14.8288C54.4639 14.7268 54.9726 14.4634 55.374 14.072C55.7435 13.6738 55.9577 13.1563 55.9775 12.6135H53.3631V11.7487H56.8518C56.8848 11.9279 56.9017 12.1097 56.9022 12.2919Z" fill="white" stroke="white" stroke-width="0.2" stroke-miterlimit="10"/>
<path d="M62.4334 9.28484H59.1545V11.5676H62.1112V12.4325H59.1545V14.7153H62.4334V15.6H58.2299V8.40009H62.4334V9.28484Z" fill="white" stroke="white" stroke-width="0.2" stroke-miterlimit="10"/>
<path d="M66.3345 15.6H65.4087V9.28484H63.3978V8.40009H68.3455V9.28484H66.3345V15.6Z" fill="white" stroke="white" stroke-width="0.2" stroke-miterlimit="10"/>
<path d="M71.9255 15.6V8.40009H72.8501V15.6H71.9255Z" fill="white" stroke="white" stroke-width="0.2" stroke-miterlimit="10"/>
<path d="M76.954 15.6H76.0282V9.28484H74.0174V8.40009H78.965V9.28484H76.954V15.6Z" fill="white" stroke="white" stroke-width="0.2" stroke-miterlimit="10"/>
<path d="M88.3312 14.6695C87.6304 15.3682 86.6811 15.7606 85.6915 15.7606C84.7019 15.7606 83.7527 15.3682 83.0519 14.6695C82.7052 14.3184 82.4327 13.9011 82.2505 13.4425C82.0683 12.9839 81.9802 12.4934 81.9914 12C81.9802 11.5067 82.0683 11.0161 82.2505 10.5576C82.4327 10.099 82.7052 9.68168 83.0519 9.33053C83.3983 8.98405 83.8096 8.70929 84.2623 8.52197C84.715 8.33465 85.2002 8.23846 85.6902 8.23889C86.1801 8.23933 86.6651 8.33638 87.1175 8.5245C87.5699 8.71262 87.9807 8.98811 88.3265 9.33521C88.6734 9.68543 88.9465 10.1018 89.1295 10.5595C89.3125 11.0173 89.4016 11.5072 89.3917 12C89.4026 12.4933 89.3144 12.9838 89.1322 13.4423C88.95 13.9009 88.6776 14.3182 88.3312 14.6695ZM83.7351 14.0667C84.2541 14.5848 84.9575 14.8758 85.6909 14.8758C86.4243 14.8758 87.1278 14.5848 87.6468 14.0667C87.913 13.7942 88.1211 13.4705 88.2587 13.1153C88.3963 12.7601 88.4604 12.3807 88.4472 12C88.4604 11.6193 88.3963 11.2399 88.2587 10.8847C88.1211 10.5295 87.913 10.2059 87.6468 9.9334C87.1278 9.41525 86.4243 9.12423 85.6909 9.12423C84.9575 9.12423 84.2541 9.41525 83.7351 9.9334C83.4693 10.2061 83.2615 10.5298 83.1241 10.885C82.9868 11.2402 82.9227 11.6195 82.9359 12C82.9227 12.3806 82.9868 12.7599 83.1241 13.1151C83.2615 13.4703 83.4693 13.794 83.7351 14.0667Z" fill="white" stroke="white" stroke-width="0.2" stroke-miterlimit="10"/>
<path d="M90.6901 15.6V8.40009H91.8163L95.3155 14.0011H95.3553L95.3155 12.6135V8.40009H96.2413V15.6H95.2757L91.6147 9.72776H91.5749L91.6147 11.1153V15.6H90.6901Z" fill="white" stroke="white" stroke-width="0.2" stroke-miterlimit="10"/>
<path d="M81.763 26.1019C80.7544 26.1058 79.7695 26.4083 78.9327 26.9715C78.096 27.5346 77.4448 28.333 77.0615 29.266C76.6781 30.1989 76.5798 31.2245 76.779 32.2133C76.9781 33.202 77.4657 34.1096 78.1802 34.8215C78.8948 35.5333 79.8042 36.0175 80.7937 36.2128C81.7833 36.4082 82.8085 36.306 83.7399 35.9191C84.6714 35.5322 85.4674 34.878 86.0273 34.0391C86.5873 33.2002 86.8861 32.2142 86.8861 31.2056C86.896 30.531 86.7701 29.8613 86.5159 29.2363C86.2617 28.6114 85.8844 28.0439 85.4064 27.5678C84.9284 27.0916 84.3596 26.7164 83.7336 26.4646C83.1077 26.2128 82.4375 26.0895 81.763 26.1019ZM81.763 34.2989C81.1418 34.3431 80.5217 34.1994 79.9834 33.8863C79.4451 33.5733 79.0135 33.1054 78.7449 32.5436C78.4762 31.9818 78.3829 31.3522 78.4771 30.7366C78.5713 30.121 78.8486 29.5481 79.273 29.0924C79.6974 28.6367 80.2491 28.3193 80.8564 28.1815C81.4637 28.0438 82.0984 28.092 82.6779 28.32C83.2574 28.5481 83.7548 28.9453 84.1053 29.4599C84.4559 29.9746 84.6434 30.5829 84.6434 31.2056C84.6623 31.599 84.6022 31.9922 84.4668 32.3621C84.3314 32.7319 84.1234 33.071 83.855 33.3592C83.5866 33.6474 83.2632 33.879 82.9039 34.0404C82.5446 34.2018 82.1567 34.2897 81.763 34.2989ZM70.5869 26.1019C69.5783 26.1057 68.5934 26.4083 67.7567 26.9714C66.9199 27.5345 66.2687 28.333 65.8854 29.2659C65.502 30.1988 65.4037 31.2244 65.6028 32.2132C65.8019 33.202 66.2895 34.1096 67.0041 34.8214C67.7186 35.5333 68.628 36.0175 69.6176 36.2128C70.6071 36.4082 71.6323 36.306 72.5638 35.9191C73.4952 35.5323 74.2912 34.8781 74.8512 34.0392C75.4111 33.2003 75.71 32.2142 75.7099 31.2056C75.7199 30.531 75.594 29.8613 75.3398 29.2364C75.0856 28.6114 74.7083 28.044 74.2303 27.5678C73.7524 27.0916 73.1835 26.7165 72.5576 26.4647C71.9317 26.2128 71.2615 26.0895 70.5869 26.1019ZM70.5869 34.2989C69.9658 34.3431 69.3457 34.1994 68.8074 33.8863C68.2691 33.5733 67.8375 33.1054 67.5688 32.5436C67.3002 31.9818 67.2069 31.3522 67.3011 30.7366C67.3953 30.121 67.6726 29.5481 68.097 29.0924C68.5214 28.6367 69.0731 28.3193 69.6804 28.1815C70.2877 28.0438 70.9224 28.092 71.5019 28.32C72.0813 28.5481 72.5787 28.9453 72.9293 29.4599C73.2799 29.9746 73.4674 30.5829 73.4674 31.2056C73.4863 31.599 73.4262 31.9922 73.2908 32.3621C73.1554 32.7319 72.9474 33.071 72.679 33.3592C72.4106 33.6474 72.0872 33.8791 71.7279 34.0404C71.3686 34.2018 70.9807 34.2897 70.5869 34.2989ZM57.2924 27.6679V29.8331H62.4736C62.3989 30.8486 61.9833 31.8092 61.2943 32.559C60.7751 33.0882 60.1507 33.5027 59.4614 33.7758C58.7721 34.0488 58.0332 34.1743 57.2924 34.1442C55.778 34.1237 54.3326 33.5077 53.2689 32.4295C52.2052 31.3513 51.6089 29.8977 51.6089 28.3831C51.6089 26.8686 52.2052 25.4149 53.2689 24.3367C54.3326 23.2586 55.778 22.6426 57.2924 22.6221C58.7471 22.6031 60.1505 23.1588 61.1977 24.1686L62.7249 22.6414C62.0104 21.934 61.1618 21.3764 60.229 21.0013C59.2961 20.6261 58.2978 20.441 57.2924 20.4568C56.2418 20.4415 55.1987 20.6352 54.2236 21.0267C53.2485 21.4182 52.361 21.9996 51.6126 22.7371C50.8643 23.4747 50.27 24.3536 49.8644 25.3229C49.4588 26.2922 49.2499 27.3324 49.2499 28.3831C49.2499 29.4338 49.4588 30.4741 49.8644 31.4433C50.27 32.4126 50.8643 33.2916 51.6126 34.0291C52.361 34.7667 53.2485 35.3481 54.2236 35.7395C55.1987 36.131 56.2418 36.3247 57.2924 36.3094C58.319 36.352 59.3428 36.1758 60.2961 35.7925C61.2494 35.4092 62.1102 34.8276 62.8215 34.0862C64.0844 32.7077 64.7576 30.8897 64.6969 29.0212C64.7018 28.5674 64.6629 28.1142 64.5807 27.6679H57.2924ZM111.662 29.3497C111.355 28.4253 110.772 27.6177 109.99 27.0366C109.208 26.4556 108.267 26.1292 107.293 26.1019C106.637 26.106 105.989 26.243 105.388 26.5046C104.786 26.7663 104.244 27.1472 103.795 27.6242C103.345 28.1013 102.996 28.6646 102.77 29.2802C102.544 29.8957 102.445 30.5508 102.479 31.2056C102.465 31.8766 102.585 32.5437 102.834 33.1671C103.083 33.7905 103.455 34.3573 103.927 34.8337C104.4 35.3101 104.964 35.6863 105.586 35.9398C106.207 36.1934 106.873 36.3191 107.544 36.3094C108.385 36.3141 109.214 36.1099 109.956 35.7151C110.699 35.3203 111.331 34.7473 111.797 34.0476L110.057 32.8877C109.797 33.3205 109.428 33.6782 108.988 33.9256C108.547 34.173 108.05 34.3016 107.544 34.2989C107.024 34.3187 106.51 34.1819 106.069 33.9062C105.628 33.6304 105.28 33.2284 105.07 32.7523L111.894 29.9298L111.662 29.3497ZM104.703 31.0511C104.678 30.6796 104.729 30.3071 104.85 29.9553C104.972 29.6035 105.163 29.2795 105.411 29.0023C105.66 28.725 105.961 28.5001 106.297 28.3407C106.634 28.1813 106.998 28.0906 107.37 28.0739C107.757 28.0484 108.144 28.1375 108.481 28.33C108.817 28.5225 109.09 28.81 109.265 29.1565L104.703 31.0511ZM99.154 36.0001H101.397V20.9982H99.154V36.0001ZM95.4808 27.2425H95.4035C95.0626 26.8721 94.6465 26.5787 94.1831 26.382C93.7196 26.1853 93.2196 26.0898 92.7163 26.1019C91.4002 26.1579 90.1567 26.7201 89.2453 27.6711C88.3339 28.6222 87.8251 29.8885 87.8251 31.2057C87.8251 32.5229 88.3339 33.7892 89.2453 34.7402C90.1567 35.6912 91.4002 36.2534 92.7163 36.3094C93.2215 36.3229 93.7237 36.2261 94.1878 36.0258C94.6519 35.8255 95.0667 35.5264 95.4035 35.1495H95.4808V35.8842C95.4808 37.8368 94.4369 38.8807 92.7549 38.8807C92.1943 38.8672 91.6505 38.6873 91.1926 38.3636C90.7347 38.04 90.3835 37.5873 90.1838 37.0634L88.2312 37.8754C88.5992 38.7714 89.2263 39.5371 90.0323 40.0744C90.8382 40.6117 91.7863 40.8962 92.7549 40.8913C95.3842 40.8913 97.6074 39.3447 97.6074 35.5748V26.4112H95.4808V27.2425ZM92.9097 34.2989C92.1346 34.2331 91.4124 33.8788 90.8861 33.306C90.3598 32.7331 90.0677 31.9836 90.0677 31.2057C90.0677 30.4278 90.3598 29.6782 90.8861 29.1054C91.4124 28.5326 92.1346 28.1782 92.9097 28.1125C93.2953 28.1314 93.6732 28.2276 94.0208 28.3956C94.3685 28.5636 94.6787 28.7999 94.9331 29.0903C95.1874 29.3808 95.3807 29.7194 95.5014 30.0862C95.6221 30.4529 95.6677 30.8402 95.6355 31.2249C95.6656 31.6073 95.6184 31.9918 95.4965 32.3555C95.3746 32.7191 95.1806 33.0545 94.9262 33.3415C94.6717 33.6284 94.362 33.8611 94.0155 34.0256C93.669 34.1901 93.2929 34.2831 92.9097 34.2989ZM122.167 20.9985H116.801V36.0001H119.04V30.3164H122.167C122.8 30.3512 123.434 30.2564 124.029 30.0379C124.625 29.8195 125.169 29.4819 125.63 29.0459C126.091 28.6099 126.457 28.0845 126.708 27.5019C126.959 26.9193 127.088 26.2917 127.088 25.6575C127.088 25.0232 126.959 24.3956 126.708 23.813C126.457 23.2304 126.091 22.7051 125.63 22.269C125.169 21.833 124.625 21.4954 124.029 21.277C123.434 21.0585 122.8 20.9638 122.167 20.9985ZM122.225 28.2287H119.04V23.0863H122.225C122.567 23.0793 122.907 23.1405 123.225 23.2666C123.543 23.3926 123.833 23.5808 124.077 23.8203C124.322 24.0598 124.516 24.3456 124.649 24.6611C124.781 24.9765 124.85 25.3153 124.85 25.6575C124.85 25.9997 124.781 26.3385 124.649 26.654C124.516 26.9694 124.322 27.2553 124.077 27.4947C123.833 27.7342 123.543 27.9225 123.225 28.0485C122.907 28.1745 122.567 28.2358 122.225 28.2287ZM136.063 26.0743C135.245 26.0266 134.432 26.2185 133.722 26.6265C133.013 27.0345 132.437 27.6408 132.067 28.371L134.055 29.2009C134.252 28.8385 134.551 28.5414 134.914 28.346C135.278 28.1506 135.69 28.0654 136.101 28.1008C136.669 28.0453 137.236 28.2173 137.677 28.5791C138.119 28.9409 138.399 29.4629 138.456 30.0307V30.1852C137.737 29.8032 136.935 29.6043 136.12 29.6062C133.978 29.6062 131.797 30.7835 131.797 32.9837C131.818 33.4473 131.932 33.9021 132.132 34.321C132.332 34.7399 132.614 35.1144 132.961 35.4222C133.309 35.73 133.714 35.9649 134.154 36.1129C134.594 36.2609 135.059 36.3191 135.522 36.2839C136.086 36.3171 136.648 36.1985 137.151 35.9405C137.653 35.6826 138.077 35.2946 138.379 34.8171H138.456V35.9751H140.617V30.2238C140.617 27.5604 138.629 26.0743 136.063 26.0743ZM135.792 34.296C135.059 34.296 134.036 33.9294 134.036 33.0222C134.036 31.8643 135.31 31.4203 136.41 31.4203C137.125 31.4013 137.831 31.5746 138.456 31.9221C138.373 32.5728 138.058 33.1717 137.569 33.6081C137.079 34.0445 136.448 34.2888 135.792 34.296ZM148.492 26.4024L145.925 32.9064H145.847L143.184 26.4024H140.772L144.767 35.4926L142.489 40.5491H144.825L150.981 26.4024H148.492ZM128.323 36.0001H130.562V20.9985H128.323V36.0001Z" fill="white"/>
<path d="M12.5227 9.04568C12.1292 9.51616 11.9305 10.1193 11.9674 10.7315V37.2707C11.9304 37.883 12.1291 38.4862 12.5227 38.9566L12.6115 39.0431L27.4783 24.1765V23.8258L12.6115 8.95856L12.5227 9.04568Z" fill="url(#paint0_linear_1_2097)"/>
<path d="M32.4335 29.1342L27.4783 24.1765V23.8258L32.4347 18.8693L32.5464 18.933L38.4178 22.2691C40.0949 23.2219 40.0949 24.781 38.4178 25.7344L32.5464 29.0705L32.4335 29.1342Z" fill="url(#paint1_linear_1_2097)"/>
<path d="M32.5464 29.0699L27.4782 24.0012L12.5227 38.9566C12.8644 39.258 13.3008 39.4304 13.7563 39.4438C14.2117 39.4573 14.6575 39.311 15.0164 39.0303L32.5464 29.0699Z" fill="url(#paint2_linear_1_2097)"/>
<path d="M32.5464 18.9324L15.0164 8.97199C14.6575 8.6913 14.2117 8.54501 13.7563 8.55847C13.3008 8.57193 12.8644 8.74428 12.5227 9.04567L27.4782 24.0012L32.5464 18.9324Z" fill="url(#paint3_linear_1_2097)"/>
<path opacity="0.2" d="M32.4347 28.9583L15.0164 38.855C14.6713 39.1177 14.2501 39.261 13.8164 39.2633C13.3827 39.2656 12.96 39.1268 12.6121 38.8678L12.5227 38.9572L12.6115 39.0437L12.6121 39.0431C12.9599 39.3023 13.3827 39.4412 13.8164 39.4389C14.2502 39.4366 14.6714 39.2931 15.0164 39.0303L32.5464 29.0699L32.4347 28.9583Z" fill="black"/>
<path opacity="0.12" d="M12.5227 38.7819C12.1292 38.3114 11.9306 37.7082 11.9673 37.096V37.2713C11.9305 37.8836 12.1292 38.4867 12.5227 38.9572L12.6121 38.8678L12.5227 38.7819Z" fill="black"/>
<path opacity="0.12" d="M38.4177 25.5585L32.4347 28.9583L32.5464 29.0699L38.4177 25.7338C38.7631 25.5839 39.062 25.3442 39.2832 25.0395C39.5045 24.7349 39.64 24.3765 39.6757 24.0017C39.6015 24.3411 39.4491 24.6586 39.2307 24.9288C39.0124 25.199 38.734 25.4146 38.4177 25.5585Z" fill="black"/>
<path opacity="0.25" d="M15.0164 9.14792L38.4177 22.4439C38.7341 22.5877 39.0126 22.8033 39.231 23.0737C39.4493 23.3441 39.6016 23.6617 39.6757 24.0012C39.6402 23.6263 39.5048 23.2677 39.2836 22.9629C39.0623 22.6582 38.7633 22.4184 38.4177 22.2685L15.0164 8.9726C13.3393 8.01969 11.9673 8.8112 11.9673 10.7322V10.9075C11.9673 8.98664 13.3393 8.19513 15.0164 9.14792Z" fill="white"/>
</g>
<defs>
<linearGradient id="paint0_linear_1_2097" x1="26.1599" y1="10.4517" x2="6.02108" y2="30.5905" gradientUnits="userSpaceOnUse">
<stop stop-color="#00A0FF"/>
<stop offset="0.00657" stop-color="#00A1FF"/>
<stop offset="0.2601" stop-color="#00BEFF"/>
<stop offset="0.5122" stop-color="#00D2FF"/>
<stop offset="0.7604" stop-color="#00DFFF"/>
<stop offset="1" stop-color="#00E3FF"/>
</linearGradient>
<linearGradient id="paint1_linear_1_2097" x1="40.6014" y1="24.0018" x2="11.5652" y2="24.0018" gradientUnits="userSpaceOnUse">
<stop stop-color="#FFE000"/>
<stop offset="0.4087" stop-color="#FFBD00"/>
<stop offset="0.7754" stop-color="#FFA500"/>
<stop offset="1" stop-color="#FF9C00"/>
</linearGradient>
<linearGradient id="paint2_linear_1_2097" x1="29.7925" y1="26.7553" x2="2.48268" y2="54.0651" gradientUnits="userSpaceOnUse">
<stop stop-color="#FF3A44"/>
<stop offset="1" stop-color="#C31162"/>
</linearGradient>
<linearGradient id="paint3_linear_1_2097" x1="8.75704" y1="0.211526" x2="20.952" y2="12.4065" gradientUnits="userSpaceOnUse">
<stop stop-color="#32A071"/>
<stop offset="0.0685" stop-color="#2DA771"/>
<stop offset="0.4762" stop-color="#15CF74"/>
<stop offset="0.8009" stop-color="#06E775"/>
<stop offset="1" stop-color="#00F076"/>
</linearGradient>
<clipPath id="clip0_1_2097">
<rect width="161.999" height="48" fill="white" transform="translate(0.000427246)"/>
</clipPath>
</defs>
</svg>
