<svg width="48" height="60" viewBox="0 0 48 60" fill="none" xmlns="http://www.w3.org/2000/svg">
<g clip-path="url(#clip0_1_2013)">
<path d="M24 21.7083L26.9167 28.58C26.9167 29.3639 26.6094 30.1156 26.0624 30.6699C25.5155 31.2242 24.7736 31.5356 24 31.5356C23.2265 31.5356 22.4846 31.2242 21.9376 30.6699C21.3907 30.1156 21.0834 29.3639 21.0834 28.58L24 21.7083ZM42.9584 3.177H5.04171C4.65493 3.177 4.284 3.3327 4.01051 3.60983C3.73702 3.88697 3.58337 4.26285 3.58337 4.65478V9.08811C3.58337 9.48004 3.73702 9.85592 4.01051 10.1331C4.284 10.4102 4.65493 10.5659 5.04171 10.5659H42.9584C43.3451 10.5659 43.7161 10.4102 43.9896 10.1331C44.2631 9.85592 44.4167 9.48004 44.4167 9.08811V4.65478C44.4167 4.26285 44.2631 3.88697 43.9896 3.60983C43.7161 3.3327 43.3451 3.177 42.9584 3.177ZM41.5 34.2103V12.0437H24C27.481 12.0437 30.8194 13.4449 33.2808 15.9391C35.7422 18.4334 37.125 21.8163 37.125 25.3437V34.2103H41.5ZM24 14.9992C21.2926 14.9992 18.6961 16.0891 16.7817 18.029C14.8672 19.969 13.7917 22.6001 13.7917 25.3437V34.2103H24C22.4529 34.2103 20.9692 33.5876 19.8752 32.479C18.7813 31.3705 18.1667 29.8669 18.1667 28.2992C18.1689 28.0965 18.2085 27.8961 18.2834 27.7081L22.6584 17.3637C22.7704 17.0971 22.9574 16.8698 23.1959 16.71C23.4345 16.5502 23.7141 16.4651 24 16.4651C24.286 16.4651 24.5656 16.5502 24.8042 16.71C25.0427 16.8698 25.2296 17.0971 25.3417 17.3637L29.7167 27.7081C29.7916 27.8961 29.8312 28.0965 29.8334 28.2992C29.8334 29.8669 29.2188 31.3705 28.1248 32.479C27.0309 33.5876 25.5471 34.2103 24 34.2103H34.2084V25.3437C34.2084 22.6001 33.1329 19.969 31.2184 18.029C29.304 16.0891 26.7075 14.9992 24 14.9992ZM6.50004 34.2103H10.875V25.3437C10.875 21.8163 12.2578 18.4334 14.7193 15.9391C17.1807 13.4449 20.5191 12.0437 24 12.0437H6.50004V34.2103ZM42.9584 35.6881H5.04171C4.65493 35.6881 4.284 35.8438 4.01051 36.1209C3.73702 36.3981 3.58337 36.774 3.58337 37.1659V43.077C3.58337 43.4689 3.73702 43.8448 4.01051 44.1219C4.284 44.3991 4.65493 44.5548 5.04171 44.5548H42.9584C43.3451 44.5548 43.7161 44.3991 43.9896 44.1219C44.2631 43.8448 44.4167 43.4689 44.4167 43.077V37.1659C44.4167 36.774 44.2631 36.3981 43.9896 36.1209C43.7161 35.8438 43.3451 35.6881 42.9584 35.6881Z" fill="url(#paint0_linear_1_2013)"/>
</g>
<defs>
<linearGradient id="paint0_linear_1_2013" x1="24" y1="3.177" x2="24" y2="44.5548" gradientUnits="userSpaceOnUse">
<stop stop-color="#FF002E"/>
<stop offset="1" stop-color="#FF3E3E"/>
</linearGradient>
<clipPath id="clip0_1_2013">
<rect x="0.666748" y="0.22168" width="46.6667" height="59.1111" rx="14" fill="white"/>
</clipPath>
</defs>
</svg>
