<svg width="60" height="75" viewBox="0 0 60 75" fill="none" xmlns="http://www.w3.org/2000/svg">
<g clip-path="url(#clip0_1_1996)">
<path d="M22.8694 50.7331H37.13C36.7046 52.3148 35.7759 53.7112 34.4873 54.7067C33.1987 55.7022 31.6217 56.2416 29.9997 56.2416C28.3776 56.2416 26.8007 55.7022 25.512 54.7067C24.2234 53.7112 23.2948 52.3148 22.8694 50.7331ZM46.4584 46.2344L39.2358 29.8077V20.8664C39.2358 20.3713 39.0412 19.8965 38.6948 19.5465C38.3483 19.1964 37.8785 18.9997 37.3886 18.9997H31.8469V5.93307C31.8469 5.438 31.6523 4.96321 31.3059 4.61314C30.9594 4.26307 30.4896 4.06641 29.9997 4.06641C29.5098 4.06641 29.0399 4.26307 28.6935 4.61314C28.3471 4.96321 28.1525 5.438 28.1525 5.93307V18.9997H22.6108C22.1209 18.9997 21.651 19.1964 21.3046 19.5465C20.9582 19.8965 20.7636 20.3713 20.7636 20.8664V29.8077L13.5409 46.2344C13.4146 46.5184 13.3606 46.8298 13.3838 47.1402C13.407 47.4507 13.5066 47.7504 13.6737 48.012C13.8408 48.2736 14.07 48.4888 14.3404 48.638C14.6108 48.7872 14.9138 48.8658 15.2219 48.8664H44.7775C45.0856 48.8658 45.3886 48.7872 45.659 48.638C45.9294 48.4888 46.1586 48.2736 46.3257 48.012C46.4927 47.7504 46.5924 47.4507 46.6156 47.1402C46.6388 46.8298 46.5848 46.5184 46.4584 46.2344Z" fill="url(#paint0_linear_1_1996)"/>
</g>
<defs>
<linearGradient id="paint0_linear_1_1996" x1="29.9997" y1="4.06641" x2="29.9997" y2="56.2416" gradientUnits="userSpaceOnUse">
<stop stop-color="#FFB800"/>
<stop offset="1" stop-color="#E3DE67"/>
</linearGradient>
<clipPath id="clip0_1_1996">
<rect x="0.444153" y="0.333252" width="59.1111" height="74.6667" rx="14" fill="white"/>
</clipPath>
</defs>
</svg>
