<svg width="48" height="48" viewBox="0 0 48 48" fill="none" xmlns="http://www.w3.org/2000/svg">
<g clip-path="url(#clip0_1_1962)">
<path d="M41.5001 6.50023V10.3891C41.5001 17.9063 35.4062 24.0002 27.889 24.0002H25.9446V25.9447H35.6668V39.5558C35.6668 41.7044 33.9265 43.4447 31.7779 43.4447H16.2223C14.0737 43.4447 12.3334 41.7044 12.3334 39.5558V25.9447H22.0557V20.1113C22.0557 12.5941 28.1496 6.50023 35.6668 6.50023H41.5001ZM11.3612 4.55579C16.2787 4.55579 20.6265 6.98829 23.269 10.7177C21.2857 13.3252 20.1112 16.5822 20.1112 20.1113V22.0558H19.139C11.0851 22.0558 4.55566 15.5263 4.55566 7.47245V4.55579H11.3612Z" fill="url(#paint0_linear_1_1962)"/>
</g>
<defs>
<linearGradient id="paint0_linear_1_1962" x1="23.0279" y1="4.55579" x2="23.0279" y2="43.4447" gradientUnits="userSpaceOnUse">
<stop stop-color="#1CC91D"/>
<stop offset="1" stop-color="#6CA425"/>
</linearGradient>
<clipPath id="clip0_1_1962">
<rect x="0.666748" y="0.66687" width="46.6667" height="46.6667" rx="14" fill="white"/>
</clipPath>
</defs>
</svg>
