<svg width="0" height="0" class="hidden">
  <symbol fill="none" xmlns="http://www.w3.org/2000/svg" viewBox="0 0 48 48" id="plant">
    <g clip-path="url(#clip0_1_1962)">
      <path d="M41.5001 6.50023V10.3891C41.5001 17.9063 35.4062 24.0002 27.889 24.0002H25.9446V25.9447H35.6668V39.5558C35.6668 41.7044 33.9265 43.4447 31.7779 43.4447H16.2223C14.0737 43.4447 12.3334 41.7044 12.3334 39.5558V25.9447H22.0557V20.1113C22.0557 12.5941 28.1496 6.50023 35.6668 6.50023H41.5001ZM11.3612 4.55579C16.2787 4.55579 20.6265 6.98829 23.269 10.7177C21.2857 13.3252 20.1112 16.5822 20.1112 20.1113V22.0558H19.139C11.0851 22.0558 4.55566 15.5263 4.55566 7.47245V4.55579H11.3612Z" fill="url(#paint0_linear_1_1962)"></path>
    </g>
    <defs>
      <linearGradient id="paint0_linear_1_1962" x1="23.0279" y1="4.55579" x2="23.0279" y2="43.4447" gradientUnits="userSpaceOnUse">
        <stop stop-color="#1CC91D"></stop>
        <stop offset="1" stop-color="#6CA425"></stop>
      </linearGradient>
      <clipPath id="clip0_1_1962">
        <rect x="0.666748" y="0.66687" width="46.6667" height="46.6667" rx="14" fill="white"></rect>
      </clipPath>
    </defs>
  </symbol>
  <symbol fill="none" xmlns="http://www.w3.org/2000/svg" viewBox="0 0 16 14" id="twitter">
    <path fill-rule="evenodd" clip-rule="evenodd" d="M7.5208 4.00498L7.55438 4.55861L6.99479 4.49082C4.95791 4.23095 3.17843 3.34965 1.66756 1.86952L0.928908 1.13511L0.73865 1.67744C0.33575 2.88641 0.593158 4.16316 1.43253 5.02186C1.8802 5.4964 1.77948 5.5642 1.00725 5.28173C0.73865 5.19134 0.503625 5.12355 0.481242 5.15744C0.4029 5.23653 0.6715 6.26472 0.884142 6.67147C1.17513 7.2364 1.76828 7.79004 2.4174 8.1177L2.96579 8.37757L2.31668 8.38887C1.68994 8.38887 1.66756 8.40017 1.73471 8.63744C1.95854 9.37186 2.84268 10.1515 3.82755 10.4904L4.52143 10.7277L3.91708 11.0893C3.02175 11.609 1.96973 11.9028 0.917717 11.9254C0.414092 11.9367 0 11.9819 0 12.0158C0 12.1287 1.36538 12.7615 2.15999 13.01C4.54382 13.7445 7.37531 13.4281 9.50173 12.1739C11.0126 11.2813 12.5235 9.50744 13.2286 7.79004C13.6091 6.87485 13.9896 5.20264 13.9896 4.40043C13.9896 3.88069 14.0232 3.8129 14.6499 3.19147C15.0192 2.82991 15.3662 2.43446 15.4333 2.32147C15.5452 2.1068 15.534 2.1068 14.9633 2.29887C14.012 2.63783 13.8777 2.59264 14.3477 2.0842C14.6947 1.72264 15.1088 1.06732 15.1088 0.875237C15.1088 0.841341 14.9409 0.897835 14.7506 0.999523C14.5492 1.11251 14.1015 1.28199 13.7658 1.38368L13.1614 1.57576L12.613 1.2029C12.3108 0.999523 11.8856 0.773549 11.6617 0.705757C11.0909 0.547575 10.218 0.570172 9.70318 0.750952C8.30422 1.25939 7.42008 2.57004 7.5208 4.00498Z" fill="white"></path>
  </symbol>
  <symbol fill="none" xmlns="http://www.w3.org/2000/svg" viewBox="0 0 18 13" id="youtube">
    <path fill-rule="evenodd" clip-rule="evenodd" d="M15.6677 0.49952C16.4021 0.70103 16.9804 1.29478 17.1767 2.04878C17.5333 3.41533 17.5333 6.26663 17.5333 6.26663C17.5333 6.26663 17.5333 9.11784 17.1767 10.4845C16.9804 11.2385 16.4021 11.8322 15.6677 12.0338C14.3369 12.4 9.00001 12.4 9.00001 12.4C9.00001 12.4 3.66309 12.4 2.33218 12.0338C1.59783 11.8322 1.0195 11.2385 0.823232 10.4845C0.466675 9.11784 0.466675 6.26663 0.466675 6.26663C0.466675 6.26663 0.466675 3.41533 0.823232 2.04878C1.0195 1.29478 1.59783 0.70103 2.33218 0.49952C3.66309 0.133301 9.00001 0.133301 9.00001 0.133301C9.00001 0.133301 14.3369 0.133301 15.6677 0.49952ZM7.40002 3.86658V9.19991L11.6667 6.53335L7.40002 3.86658Z" fill="white"></path>
  </symbol>
  <symbol fill="none" xmlns="http://www.w3.org/2000/svg" viewBox="0 0 44 57" id="animals">
    <g clip-path="url(#clip0_1_2032)">
      <path d="M40.7198 9.92479C40.1225 9.31051 39.4016 8.83817 38.6079 8.54093C37.8142 8.24368 36.9669 8.12875 36.1254 8.20419C36.2092 7.20647 36.0471 6.20311 35.6541 5.28688C35.2612 4.37064 34.65 3.57108 33.877 2.96212C33.1041 2.35315 32.1944 1.95443 31.232 1.80281C30.2696 1.65119 29.2856 1.75155 28.3709 2.09464C27.4562 2.43772 26.6403 3.01244 25.9987 3.76569C25.3571 4.51893 24.9105 5.42638 24.7001 6.40416C24.4897 7.38194 24.5224 8.39849 24.7951 9.35985C25.0678 10.3212 25.5717 11.1964 26.2602 11.9044C26.2874 11.9324 26.3146 11.9604 26.3432 11.9884L11.553 27.1992C11.5258 27.1705 11.4985 27.1432 11.4713 27.1145C10.7831 26.4057 9.93215 25.8869 8.99727 25.6059C8.06239 25.325 7.07373 25.2911 6.12273 25.5073C5.17172 25.7235 4.28907 26.1828 3.5564 26.8429C2.82372 27.5029 2.26469 28.3423 1.93099 29.2835C1.59729 30.2246 1.49969 31.2372 1.64723 32.2274C1.79477 33.2176 2.18268 34.1536 2.77509 34.9488C3.3675 35.7439 4.14527 36.3726 5.03649 36.7767C5.92771 37.1807 6.9036 37.3471 7.87391 37.2605C7.79002 38.2582 7.95201 39.2615 8.3449 40.1778C8.7378 41.0941 9.34891 41.8937 10.1218 42.5027C10.8946 43.1117 11.8043 43.5106 12.7666 43.6623C13.729 43.814 14.713 43.7138 15.6278 43.3708C16.5425 43.0278 17.3584 42.4532 18.0001 41.7001C18.6417 40.9469 19.0885 40.0395 19.299 39.0618C19.5095 38.084 19.4769 37.0675 19.2044 36.1061C18.9319 35.1447 18.4281 34.2695 17.7396 33.5614C17.7124 33.5327 17.6852 33.5054 17.658 33.4774L32.4469 18.2653C32.4741 18.294 32.5013 18.3227 32.5285 18.3507C33.6148 19.468 35.0882 20.0957 36.6244 20.0957C37.3851 20.0957 38.1384 19.9416 38.8411 19.6422C39.5439 19.3428 40.1825 18.9039 40.7204 18.3507C41.2583 17.7974 41.6849 17.1406 41.976 16.4178C42.2671 15.6949 42.417 14.9202 42.417 14.1377C42.417 13.3553 42.2671 12.5806 41.976 11.8577C41.6849 11.1348 41.2583 10.478 40.7204 9.92479H40.7198Z" fill="url(#paint0_linear_1_2032)"></path>
    </g>
    <defs>
      <linearGradient id="paint0_linear_1_2032" x1="21.9987" y1="1.73413" x2="21.9987" y2="43.7311" gradientUnits="userSpaceOnUse">
        <stop stop-color="#FFA800"></stop>
        <stop offset="1" stop-color="#B77900"></stop>
      </linearGradient>
      <clipPath id="clip0_1_2032">
        <rect x="0.22229" y="0.33313" width="43.5556" height="56" rx="14" fill="white"></rect>
      </clipPath>
    </defs>
  </symbol>
  <symbol fill="none" xmlns="http://www.w3.org/2000/svg" viewBox="0 0 162 48" id="app-store">
    <g clip-path="url(#clip0_1_2098)">
      <path d="M149.099 3.39297e-05H12.908C12.4115 3.39297e-05 11.921 3.39298e-05 11.4259 0.00243393C11.0115 0.00483393 10.6003 0.0118059 10.1819 0.0176739C9.2728 0.0271561 8.36589 0.0980455 7.46899 0.229726C6.57336 0.364273 5.70578 0.617933 4.8956 0.982126C4.08641 1.3494 3.34704 1.82664 2.70429 2.39652C2.05817 2.9648 1.51958 3.62165 1.10923 4.34183C0.697744 5.06056 0.412419 5.83076 0.263109 6.62581C0.112379 7.41986 0.0312704 8.22306 0.0205099 9.02821C0.00794675 9.39613 0.00662003 9.76527 0 10.1332V37.8704C0.00662003 38.243 0.00794675 38.6039 0.0205099 38.9766C0.0312737 39.7817 0.112383 40.5849 0.263109 41.3789C0.412007 42.1744 0.697348 42.9451 1.10923 43.6641C1.51939 44.3819 2.05806 45.0361 2.70429 45.6012C3.3446 46.1737 4.08445 46.6512 4.8956 47.0157C5.70577 47.3808 6.57326 47.636 7.46899 47.7726C8.36604 47.9033 9.27286 47.9742 10.1819 47.9848C10.6003 47.993 11.0115 47.9976 11.4259 47.9976C11.921 48 12.4115 48 12.908 48H149.099C149.586 48 150.08 48 150.567 47.9976C150.979 47.9976 151.402 47.993 151.815 47.9848C152.722 47.9747 153.627 47.9038 154.522 47.7726C155.421 47.6351 156.292 47.3799 157.106 47.0157C157.916 46.651 158.655 46.1735 159.295 45.6012C159.94 45.0339 160.48 44.3802 160.895 43.6641C161.304 42.9445 161.586 42.174 161.733 41.3789C161.884 40.5848 161.968 39.7818 161.984 38.9766C161.989 38.6039 161.989 38.243 161.989 37.8704C162 37.4344 162 37.0008 162 36.5578V11.4434C162 11.0039 162 10.568 161.989 10.1332C161.989 9.76527 161.989 9.39613 161.984 9.02816C161.968 8.22294 161.884 7.41992 161.733 6.62576C161.586 5.83117 161.303 5.06104 160.895 4.34178C160.059 2.89827 158.734 1.72326 157.106 0.982018C156.292 0.618715 155.421 0.365122 154.522 0.229618C153.627 0.0973573 152.722 0.0264432 151.815 0.0175059C151.402 0.0116499 150.979 0.00461793 150.567 0.00227793C150.08 -0.00012207 149.586 -0.00012207 149.099 -0.00012207V3.39297e-05Z" fill="#A6A6A6"></path>
      <path d="M11.316 46.9536C10.9028 46.9536 10.4996 46.9489 10.0896 46.9408C9.2404 46.931 8.39315 46.8655 7.55484 46.745C6.77315 46.6258 6.01591 46.4042 5.30809 46.0874C4.60675 45.7732 3.96708 45.3612 3.41358 44.8672C2.85206 44.379 2.38457 43.8128 2.02963 43.1911C1.67079 42.5652 1.42245 41.8944 1.29326 41.202C1.15374 40.458 1.07826 39.7057 1.06746 38.9515C1.05886 38.6984 1.04761 37.8556 1.04761 37.8556V10.1291C1.04761 10.1291 1.0596 9.29925 1.06753 9.05544C1.07787 8.3025 1.15291 7.55135 1.29201 6.80849C1.42144 6.11417 1.66997 5.44142 2.02901 4.81355C2.38264 4.1922 2.84753 3.62558 3.40567 3.13566C3.96318 2.64109 4.6049 2.22698 5.30742 1.90844C6.01362 1.59263 6.76943 1.37255 7.54954 1.25557C8.3906 1.13383 9.24079 1.06801 10.093 1.05866L11.3166 1.04401H150.684L151.922 1.05925C152.767 1.06813 153.609 1.13337 154.442 1.2544C155.23 1.37285 155.994 1.59446 156.708 1.91196C158.116 2.55391 159.261 3.56953 159.983 4.81648C160.337 5.44002 160.581 6.10727 160.709 6.7956C160.85 7.54456 160.929 8.30161 160.945 9.06072C160.949 9.40063 160.949 9.76575 160.949 10.1291C160.96 10.5792 160.96 11.0076 160.96 11.4395V36.5592C160.96 36.9952 160.96 37.4207 160.949 37.8497C160.949 38.24 160.949 38.5976 160.944 38.9656C160.928 39.7111 160.85 40.4547 160.712 41.1902C160.585 41.8877 160.338 42.5637 159.98 43.1947C159.622 43.8097 159.157 44.371 158.602 44.8578C158.048 45.3545 157.407 45.7689 156.704 46.0851C155.992 46.4044 155.23 46.6268 154.442 46.745C153.604 46.8662 152.757 46.9316 151.908 46.9408C151.51 46.9489 151.094 46.9536 150.691 46.9536L149.221 46.956L11.316 46.9536Z" fill="black"></path>
      <path d="M39.3568 24.3608C39.3697 23.3592 39.6357 22.3771 40.1301 21.506C40.6246 20.6348 41.3313 19.9029 42.1846 19.3783C41.6425 18.6041 40.9274 17.967 40.096 17.5175C39.2646 17.0681 38.3399 16.8187 37.3952 16.7891C35.3801 16.5776 33.4266 17.9949 32.3998 17.9949C31.353 17.9949 29.772 16.8101 28.0695 16.8451C26.9683 16.8807 25.8951 17.2009 24.9545 17.7746C24.0138 18.3483 23.2378 19.1558 22.702 20.1186C20.3812 24.1367 22.1124 30.0419 24.3355 33.2899C25.4478 34.8803 26.7477 36.6568 28.4486 36.5938C30.1131 36.5248 30.7348 35.5325 32.7439 35.5325C34.7344 35.5325 35.3177 36.5938 37.0531 36.5538C38.8392 36.5248 39.9645 34.9563 41.0377 33.3508C41.8369 32.2176 42.4519 30.9651 42.8598 29.6398C41.8222 29.2009 40.9367 28.4663 40.3137 27.5275C39.6908 26.5888 39.358 25.4874 39.3568 24.3608Z" fill="white"></path>
      <path d="M36.0788 14.653C37.0526 13.484 37.5324 11.9814 37.4162 10.4643C35.9284 10.6206 34.5541 11.3316 33.5671 12.4558C33.0845 13.005 32.715 13.6439 32.4795 14.3361C32.244 15.0282 32.1472 15.7599 32.1947 16.4895C32.9388 16.4972 33.675 16.3359 34.3478 16.0178C35.0206 15.6997 35.6125 15.233 36.0788 14.653Z" fill="white"></path>
      <path d="M60.3968 32.5676H54.7168L53.3527 36.5953H50.9468L56.3269 21.6937H58.8265L64.2066 36.5953H61.7597L60.3968 32.5676ZM55.305 30.709H59.8074L57.5879 24.1723H57.5258L55.305 30.709Z" fill="white"></path>
      <path d="M75.8258 31.1637C75.8258 34.5398 74.0187 36.709 71.2918 36.709C70.601 36.7451 69.914 36.586 69.3094 36.2498C68.7049 35.9137 68.2072 35.414 67.8734 34.8082H67.8218V40.1894H65.5917V25.7309H67.7504V27.5379H67.7914C68.1405 26.9349 68.6466 26.4379 69.2558 26.0997C69.8649 25.7615 70.5544 25.5947 71.2508 25.6172C74.0081 25.6172 75.8258 27.7969 75.8258 31.1637ZM73.5336 31.1637C73.5336 28.9641 72.3968 27.518 70.6625 27.518C68.9586 27.518 67.8125 28.9945 67.8125 31.1637C67.8125 33.3527 68.9586 34.8188 70.6625 34.8188C72.3969 34.8188 73.5336 33.3832 73.5336 31.1637Z" fill="white"></path>
      <path d="M87.7836 31.1637C87.7836 34.5398 85.9765 36.709 83.2496 36.709C82.5588 36.7451 81.8718 36.586 81.2673 36.2498C80.6627 35.9136 80.165 35.414 79.8312 34.8082H79.7796V40.1894H77.5496V25.7308H79.7081V27.5379H79.7492C80.0983 26.9349 80.6044 26.4379 81.2135 26.0997C81.8227 25.7615 82.5122 25.5947 83.2085 25.6172C85.966 25.6172 87.7836 27.7969 87.7836 31.1637ZM85.4914 31.1637C85.4914 28.9641 84.3547 27.518 82.6203 27.518C80.9164 27.518 79.7703 28.9945 79.7703 31.1637C79.7703 33.3527 80.9164 34.8187 82.6203 34.8187C84.3547 34.8187 85.4914 33.3832 85.4914 31.1637H85.4914Z" fill="white"></path>
      <path d="M95.6867 32.4434C95.852 33.9211 97.2875 34.8914 99.2492 34.8914C101.129 34.8914 102.481 33.9211 102.481 32.5886C102.481 31.432 101.666 30.7394 99.7344 30.2648L97.8031 29.7996C95.0668 29.1386 93.7965 27.8589 93.7965 25.7824C93.7965 23.2113 96.0371 21.4453 99.2187 21.4453C102.368 21.4453 104.526 23.2113 104.599 25.7824H102.348C102.213 24.2953 100.984 23.3976 99.1871 23.3976C97.3906 23.3976 96.1613 24.3058 96.1613 25.6277C96.1613 26.6812 96.9465 27.3011 98.8672 27.7757L100.509 28.1788C103.566 28.9019 104.837 30.13 104.837 32.3097C104.837 35.0976 102.616 36.8436 99.0839 36.8436C95.7793 36.8436 93.548 35.1386 93.4039 32.4432L95.6867 32.4434Z" fill="white"></path>
      <path d="M109.65 23.1598V25.7309H111.716V27.4969H109.65V33.4864C109.65 34.4168 110.063 34.8504 110.971 34.8504C111.217 34.8461 111.462 34.8289 111.705 34.7988V36.5543C111.297 36.6306 110.882 36.6651 110.466 36.6574C108.267 36.6574 107.409 35.8312 107.409 33.7242V27.4969H105.829V25.7309H107.409V23.1598H109.65Z" fill="white"></path>
      <path d="M112.912 31.1637C112.912 27.7453 114.925 25.5973 118.065 25.5973C121.215 25.5973 123.219 27.7453 123.219 31.1637C123.219 34.5914 121.225 36.7301 118.065 36.7301C114.905 36.7301 112.912 34.5914 112.912 31.1637ZM120.946 31.1637C120.946 28.8188 119.872 27.4348 118.065 27.4348C116.258 27.4348 115.184 28.8293 115.184 31.1637C115.184 33.518 116.258 34.8914 118.065 34.8914C119.872 34.8914 120.946 33.518 120.946 31.1637H120.946Z" fill="white"></path>
      <path d="M125.057 25.7309H127.184V27.5801H127.236C127.38 27.0025 127.718 26.4921 128.194 26.1347C128.67 25.7772 129.254 25.5945 129.849 25.6172C130.106 25.6163 130.362 25.6442 130.613 25.7004V27.7863C130.289 27.6872 129.95 27.6417 129.611 27.6516C129.287 27.6384 128.964 27.6955 128.665 27.819C128.365 27.9425 128.095 28.1294 127.874 28.3668C127.654 28.6043 127.487 28.8867 127.386 29.1947C127.284 29.5027 127.251 29.829 127.287 30.1512V36.5953H125.057L125.057 25.7309Z" fill="white"></path>
      <path d="M140.895 33.4043C140.595 35.3766 138.675 36.7301 136.217 36.7301C133.057 36.7301 131.095 34.6125 131.095 31.2153C131.095 27.8074 133.067 25.5973 136.123 25.5973C139.129 25.5973 141.02 27.6621 141.02 30.9563V31.7203H133.346V31.8551C133.311 32.2549 133.361 32.6577 133.493 33.0367C133.625 33.4158 133.836 33.7623 134.113 34.0534C134.389 34.3444 134.725 34.5733 135.096 34.7249C135.468 34.8765 135.868 34.9472 136.269 34.9324C136.796 34.9818 137.325 34.8598 137.777 34.5844C138.229 34.3091 138.58 33.8952 138.778 33.4043L140.895 33.4043ZM133.357 30.1617H138.788C138.808 29.8022 138.754 29.4425 138.628 29.105C138.503 28.7676 138.309 28.4597 138.058 28.2008C137.808 27.9419 137.507 27.7375 137.174 27.6004C136.841 27.4633 136.483 27.3966 136.123 27.4043C135.76 27.4022 135.4 27.4719 135.064 27.6096C134.728 27.7473 134.423 27.9502 134.165 28.2065C133.908 28.4629 133.704 28.7677 133.566 29.1033C133.427 29.4388 133.356 29.7986 133.357 30.1618V30.1617Z" fill="white"></path>
      <path d="M55.0255 10.4772C55.4931 10.4436 55.9622 10.5143 56.3992 10.684C56.8361 10.8537 57.2299 11.1183 57.5522 11.4586C57.8745 11.799 58.1173 12.2066 58.263 12.6521C58.4086 13.0977 58.4536 13.57 58.3947 14.035C58.3947 16.3225 57.1584 17.6374 55.0255 17.6374H52.4392V10.4772H55.0255ZM53.5513 16.6248H54.9013C55.2354 16.6447 55.5697 16.59 55.88 16.4644C56.1902 16.3389 56.4686 16.1458 56.6948 15.8991C56.921 15.6524 57.0893 15.3584 57.1875 15.0384C57.2858 14.7185 57.3114 14.3807 57.2626 14.0496C57.3079 13.7198 57.2796 13.3841 57.1799 13.0665C57.0801 12.7489 56.9114 12.4573 56.6857 12.2125C56.46 11.9678 56.183 11.7761 55.8745 11.651C55.566 11.5259 55.2337 11.4706 54.9013 11.489H53.5513V16.6248Z" fill="white"></path>
      <path d="M59.6509 14.9332C59.6169 14.5781 59.6576 14.2198 59.7702 13.8813C59.8828 13.5428 60.0649 13.2316 60.3048 12.9676C60.5447 12.7037 60.8372 12.4927 61.1634 12.3484C61.4896 12.2041 61.8424 12.1295 62.1992 12.1295C62.5559 12.1295 62.9087 12.2041 63.2349 12.3484C63.5611 12.4927 63.8536 12.7037 64.0935 12.9676C64.3334 13.2316 64.5155 13.5428 64.6281 13.8813C64.7407 14.2198 64.7814 14.5781 64.7474 14.9332C64.782 15.2886 64.7419 15.6474 64.6296 15.9864C64.5173 16.3255 64.3353 16.6373 64.0953 16.9018C63.8553 17.1662 63.5626 17.3776 63.236 17.5223C62.9095 17.6669 62.5563 17.7416 62.1992 17.7416C61.842 17.7416 61.4888 17.6669 61.1623 17.5223C60.8357 17.3776 60.543 17.1662 60.303 16.9018C60.0631 16.6373 59.8811 16.3255 59.7687 15.9864C59.6564 15.6474 59.6163 15.2886 59.6509 14.9332ZM63.6505 14.9332C63.6505 13.7619 63.1243 13.0769 62.2009 13.0769C61.274 13.0769 60.7525 13.7619 60.7525 14.9332C60.7525 16.1138 61.274 16.7935 62.2009 16.7935C63.1244 16.7935 63.6505 16.1091 63.6505 14.9332H63.6505Z" fill="white"></path>
      <path d="M71.522 17.6373H70.4158L69.299 13.6576H69.2146L68.1025 17.6373H67.0068L65.5173 12.2338H66.599L67.5669 16.357H67.6466L68.7576 12.2338H69.7806L70.8916 16.357H70.9759L71.9392 12.2338H73.0056L71.522 17.6373Z" fill="white"></path>
      <path d="M74.2584 12.2338H75.2849V13.0922H75.3646C75.4998 12.7839 75.7278 12.5254 76.0169 12.3528C76.3059 12.1803 76.6416 12.1022 76.9771 12.1295C77.24 12.1097 77.504 12.1493 77.7496 12.2455C77.9951 12.3416 78.2158 12.4917 78.3954 12.6847C78.5751 12.8777 78.7089 13.1087 78.7872 13.3605C78.8654 13.6122 78.886 13.8784 78.8474 14.1392V17.6372H77.781V14.407C77.781 13.5387 77.4037 13.1068 76.615 13.1068C76.4365 13.0985 76.2583 13.1289 76.0926 13.1959C75.927 13.2629 75.7777 13.3649 75.6552 13.495C75.5326 13.625 75.4397 13.78 75.3826 13.9494C75.3256 14.1188 75.3059 14.2985 75.3248 14.4761V17.6373H74.2584L74.2584 12.2338Z" fill="white"></path>
      <path d="M80.5466 10.1244H81.613V17.6373H80.5466V10.1244Z" fill="white"></path>
      <path d="M83.0955 14.9332C83.0615 14.5781 83.1022 14.2198 83.2148 13.8813C83.3274 13.5428 83.5096 13.2316 83.7495 12.9676C83.9895 12.7036 84.282 12.4927 84.6082 12.3483C84.9344 12.204 85.2873 12.1295 85.644 12.1295C86.0007 12.1295 86.3535 12.204 86.6798 12.3483C87.006 12.4927 87.2985 12.7036 87.5385 12.9676C87.7784 13.2316 87.9605 13.5428 88.0732 13.8813C88.1858 14.2198 88.2265 14.5781 88.1925 14.9332C88.2271 15.2887 88.1869 15.6475 88.0746 15.9865C87.9622 16.3255 87.7802 16.6373 87.5402 16.9018C87.3002 17.1663 87.0075 17.3776 86.6809 17.5223C86.3544 17.6669 86.0012 17.7416 85.644 17.7416C85.2868 17.7416 84.9336 17.6669 84.6071 17.5223C84.2805 17.3776 83.9878 17.1663 83.7478 16.9018C83.5078 16.6373 83.3258 16.3255 83.2134 15.9865C83.1011 15.6475 83.0609 15.2887 83.0955 14.9332ZM87.0951 14.9332C87.0951 13.7619 86.5689 13.077 85.6455 13.077C84.7185 13.077 84.1971 13.7619 84.1971 14.9332C84.1971 16.1139 84.7185 16.7936 85.6455 16.7936C86.5689 16.7936 87.0951 16.1092 87.0951 14.9332H87.0951Z" fill="white"></path>
      <path d="M89.3152 16.1092C89.3152 15.1365 90.0394 14.5758 91.3249 14.4961L92.7886 14.4117V13.9453C92.7886 13.3746 92.4113 13.0524 91.6824 13.0524C91.0871 13.0524 90.6746 13.2709 90.5562 13.653H89.5238C89.6328 12.7248 90.5058 12.1295 91.7316 12.1295C93.0863 12.1295 93.8503 12.8039 93.8503 13.9453V17.6373H92.8238V16.878H92.7394C92.5682 17.1503 92.3277 17.3724 92.0425 17.5215C91.7574 17.6705 91.4378 17.7412 91.1164 17.7264C90.8895 17.7499 90.6603 17.7257 90.4433 17.6553C90.2264 17.5849 90.0267 17.4698 89.857 17.3174C89.6873 17.165 89.5514 16.9788 89.4581 16.7707C89.3648 16.5626 89.3161 16.3373 89.3152 16.1092ZM92.7886 15.6475V15.1957L91.4691 15.2801C90.725 15.3299 90.3874 15.583 90.3874 16.0594C90.3874 16.5457 90.8093 16.8287 91.3894 16.8287C91.5594 16.8459 91.7311 16.8288 91.8943 16.7783C92.0575 16.7277 92.2089 16.6449 92.3395 16.5347C92.47 16.4245 92.577 16.2892 92.6542 16.1367C92.7314 15.9843 92.7771 15.8179 92.7886 15.6475Z" fill="white"></path>
      <path d="M95.2519 14.9332C95.2519 13.2258 96.1296 12.1441 97.4949 12.1441C97.8326 12.1286 98.1677 12.2095 98.4611 12.3773C98.7546 12.5452 98.9942 12.7931 99.1519 13.0921H99.2316V10.1244H100.298V17.6373H99.2761V16.7836H99.1917C99.0218 17.0806 98.7739 17.3254 98.4748 17.4916C98.1757 17.6577 97.8368 17.7389 97.4949 17.7263C96.1203 17.7264 95.2519 16.6447 95.2519 14.9332ZM96.3535 14.9332C96.3535 16.0793 96.8937 16.7689 97.7973 16.7689C98.6961 16.7689 99.2515 16.0693 99.2515 14.9379C99.2515 13.8117 98.6902 13.1021 97.7973 13.1021C96.8996 13.1021 96.3535 13.7965 96.3535 14.9332H96.3535Z" fill="white"></path>
      <path d="M104.71 14.9332C104.676 14.5781 104.717 14.2198 104.829 13.8813C104.942 13.5428 105.124 13.2316 105.364 12.9676C105.604 12.7037 105.896 12.4927 106.223 12.3484C106.549 12.2041 106.902 12.1295 107.258 12.1295C107.615 12.1295 107.968 12.2041 108.294 12.3484C108.62 12.4927 108.913 12.7037 109.153 12.9676C109.393 13.2316 109.575 13.5428 109.687 13.8813C109.8 14.2198 109.841 14.5781 109.807 14.9332C109.841 15.2886 109.801 15.6474 109.689 15.9864C109.576 16.3255 109.394 16.6373 109.154 16.9018C108.914 17.1662 108.622 17.3776 108.295 17.5223C107.969 17.6669 107.616 17.7416 107.258 17.7416C106.901 17.7416 106.548 17.6669 106.221 17.5223C105.895 17.3776 105.602 17.1662 105.362 16.9018C105.122 16.6373 104.94 16.3255 104.828 15.9864C104.716 15.6474 104.675 15.2886 104.71 14.9332ZM108.71 14.9332C108.71 13.7619 108.184 13.0769 107.26 13.0769C106.333 13.0769 105.812 13.7619 105.812 14.9332C105.812 16.1138 106.333 16.7935 107.26 16.7935C108.184 16.7935 108.71 16.1091 108.71 14.9332Z" fill="white"></path>
      <path d="M111.237 12.2338H112.264V13.0922H112.344C112.479 12.7839 112.707 12.5254 112.996 12.3528C113.285 12.1803 113.621 12.1022 113.956 12.1295C114.219 12.1097 114.483 12.1493 114.729 12.2455C114.974 12.3416 115.195 12.4917 115.375 12.6847C115.554 12.8777 115.688 13.1087 115.766 13.3605C115.845 13.6122 115.865 13.8784 115.826 14.1392V17.6372H114.76V14.407C114.76 13.5387 114.383 13.1068 113.594 13.1068C113.416 13.0985 113.237 13.1289 113.072 13.1959C112.906 13.2629 112.757 13.3649 112.634 13.495C112.512 13.625 112.419 13.78 112.362 13.9494C112.305 14.1188 112.285 14.2985 112.304 14.4761V17.6373H111.237V12.2338Z" fill="white"></path>
      <path d="M121.852 10.8885V12.2584H123.023V13.1567H121.852V15.9352C121.852 16.5012 122.085 16.749 122.616 16.749C122.752 16.7486 122.888 16.7404 123.023 16.7244V17.6127C122.831 17.647 122.637 17.6652 122.443 17.6672C121.257 17.6672 120.785 17.25 120.785 16.2082V13.1566H119.927V12.2584H120.785V10.8885H121.852Z" fill="white"></path>
      <path d="M124.48 10.1244H125.537V13.1021H125.621C125.763 12.7909 125.997 12.531 126.292 12.3578C126.587 12.1846 126.928 12.1065 127.269 12.1342C127.53 12.1199 127.792 12.1636 128.034 12.262C128.277 12.3605 128.495 12.5113 128.673 12.7037C128.851 12.8961 128.984 13.1254 129.063 13.3751C129.142 13.6249 129.164 13.889 129.13 14.1486V17.6373H128.062V14.4117C128.062 13.5486 127.66 13.1115 126.907 13.1115C126.723 13.0965 126.539 13.1217 126.366 13.1853C126.194 13.249 126.037 13.3496 125.908 13.4801C125.778 13.6105 125.679 13.7678 125.616 13.9407C125.554 14.1137 125.53 14.2982 125.546 14.4814V17.6373H124.48L124.48 10.1244Z" fill="white"></path>
      <path d="M135.348 16.1783C135.203 16.6722 134.889 17.0993 134.461 17.3851C134.033 17.6709 133.518 17.7971 133.006 17.7416C132.65 17.751 132.296 17.6828 131.969 17.5418C131.642 17.4007 131.35 17.1902 131.113 16.9249C130.875 16.6595 130.698 16.3456 130.594 16.005C130.49 15.6645 130.461 15.3053 130.51 14.9525C130.463 14.5987 130.492 14.2388 130.596 13.8971C130.699 13.5555 130.875 13.2402 131.112 12.9725C131.348 12.7048 131.639 12.491 131.965 12.3456C132.291 12.2001 132.644 12.1264 133.002 12.1295C134.505 12.1295 135.412 13.1567 135.412 14.8535V15.2256H131.596V15.2854C131.58 15.4836 131.605 15.6832 131.67 15.8713C131.735 16.0594 131.838 16.2319 131.974 16.3776C132.109 16.5234 132.274 16.6392 132.456 16.7177C132.639 16.7962 132.837 16.8356 133.035 16.8334C133.291 16.864 133.549 16.818 133.778 16.7014C134.007 16.5847 134.196 16.4027 134.321 16.1783L135.348 16.1783ZM131.596 14.4369H134.326C134.339 14.2556 134.314 14.0734 134.253 13.9021C134.192 13.7309 134.096 13.5743 133.971 13.4425C133.845 13.3106 133.694 13.2065 133.526 13.1367C133.358 13.0668 133.177 13.0329 132.996 13.0371C132.811 13.0348 132.628 13.0694 132.457 13.139C132.286 13.2085 132.131 13.3115 132.001 13.442C131.87 13.5724 131.767 13.7277 131.698 13.8985C131.629 14.0694 131.594 14.2525 131.596 14.4369H131.596Z" fill="white"></path>
    </g>
    <defs>
      <clipPath id="clip0_1_2098">
        <rect width="162" height="48" fill="white"></rect>
      </clipPath>
    </defs>
  </symbol>
  <symbol fill="none" xmlns="http://www.w3.org/2000/svg" viewBox="0 0 52 66" id="door">
    <g clip-path="url(#clip0_1_1941)">
      <path d="M40.1437 6.01834L22.793 1.94154C22.2797 1.83701 21.7664 1.94154 21.3557 2.25514C20.945 2.56874 20.7397 3.09141 20.7397 3.61408V5.96608H12.0644C11.1404 5.96608 10.3704 6.75008 10.3704 7.69088V45.7933C10.3704 46.7341 11.1404 47.5181 12.0644 47.5181H20.6884V49.8701C20.6884 50.3928 20.945 50.8632 21.3044 51.229C21.6124 51.4904 21.9717 51.5949 22.331 51.5949C22.4337 51.5949 22.5877 51.5949 22.6904 51.5426L40.041 47.4658C40.811 47.309 41.3244 46.5773 41.3244 45.7933V7.69088C41.427 6.85461 40.9137 6.17514 40.1437 6.01834ZM20.6884 44.0685H13.7584V9.36341H20.6884V44.0685ZM26.643 28.5453C25.6677 28.5453 24.8464 27.709 24.8464 26.7159C24.8464 25.7229 25.6677 24.8866 26.643 24.8866C27.6184 24.8866 28.4397 25.7229 28.4397 26.7159C28.4397 27.709 27.6184 28.5453 26.643 28.5453Z" fill="url(#paint0_linear_1_1941)"></path>
    </g>
    <defs>
      <linearGradient id="paint0_linear_1_1941" x1="25.8539" y1="1.90234" x2="25.8539" y2="51.5949" gradientUnits="userSpaceOnUse">
        <stop stop-color="#D36500"></stop>
        <stop offset="1" stop-color="#FF9900"></stop>
      </linearGradient>
      <clipPath id="clip0_1_1941">
        <rect x="0.257874" y="0.58252" width="51.3333" height="65.3333" rx="14" fill="white"></rect>
      </clipPath>
    </defs>
  </symbol>
  <symbol fill="none" xmlns="http://www.w3.org/2000/svg" viewBox="0 0 18 18" id="earth">
    <path fill-rule="evenodd" clip-rule="evenodd" d="M17.5333 8.98818C17.5333 9.56527 17.4746 10.1416 17.3592 10.7033C17.2467 11.2517 17.08 11.7901 16.8617 12.3048C16.6483 12.8104 16.3837 13.2976 16.0745 13.752C15.77 14.2035 15.4191 14.627 15.0337 15.0131C14.6474 15.3976 14.2224 15.7475 13.7711 16.0534C13.3152 16.3604 12.8273 16.6246 12.3215 16.8389C11.806 17.0561 11.2664 17.2226 10.7184 17.3349C10.1559 17.4506 9.57755 17.5096 8.99962 17.5096C8.42126 17.5096 7.8429 17.4506 7.28121 17.3349C6.73244 17.2226 6.19283 17.0561 5.67779 16.8389C5.17195 16.6246 4.68357 16.3604 4.22772 16.0534C3.77645 15.7475 3.35143 15.3976 2.96599 15.0131C2.58015 14.627 2.22928 14.2035 1.92427 13.752C1.61675 13.2976 1.35172 12.8104 1.13755 12.3048C0.919183 11.7901 0.752114 11.2517 0.639188 10.7033C0.525025 10.1416 0.466675 9.56527 0.466675 8.98818C0.466675 8.41065 0.524992 7.83313 0.639221 7.27261C0.752147 6.7242 0.919216 6.18496 1.13759 5.67111C1.35175 5.16516 1.61678 4.67751 1.9243 4.22313C2.22931 3.77127 2.58018 3.3485 2.96602 2.96195C3.35146 2.57746 3.77648 2.2284 4.22775 1.923C4.6836 1.61466 5.17198 1.35047 5.67783 1.13575C6.19286 0.918096 6.73244 0.751269 7.28124 0.639772C7.84294 0.524941 8.4213 0.466675 8.99966 0.466675C9.57758 0.466675 10.1559 0.524941 10.7185 0.639772C11.2664 0.751302 11.806 0.918129 12.3215 1.13575C12.8273 1.35044 13.3153 1.61466 13.7711 1.923C14.2224 2.2284 14.6475 2.57746 15.0337 2.96195C15.4191 3.3485 15.77 3.77127 16.0746 4.22313C16.3837 4.67751 16.6483 5.16519 16.8617 5.67111C17.08 6.18496 17.2467 6.7242 17.3592 7.27261C17.4746 7.83313 17.5333 8.41065 17.5333 8.98818ZM5.89026 2.40605C3.85805 3.36433 2.34131 5.23422 1.86836 7.48775C2.06048 7.48942 5.0973 7.52771 8.59622 6.59938C7.33492 4.36166 5.98735 2.53549 5.89026 2.40605ZM9.2 7.71995C5.44774 8.84169 1.84711 8.76097 1.71795 8.75601C1.71585 8.83422 1.71211 8.90993 1.71211 8.98817C1.71211 10.8576 2.41839 12.5619 3.57929 13.8506C3.57678 13.8468 5.57108 10.3138 9.50377 9.04393C9.59876 9.01232 9.69546 8.984 9.79128 8.95655C9.60838 8.54298 9.40875 8.12855 9.2 7.71995ZM13.8124 3.52659C12.5293 2.39689 10.8447 1.71164 8.9996 1.71164C8.40748 1.71164 7.83286 1.78321 7.28242 1.91552C7.39157 2.062 8.76042 3.87529 10.0067 6.16041C12.7565 5.13103 13.7944 3.55321 13.8124 3.52659ZM10.288 10.1624C10.2718 10.1677 10.2556 10.1724 10.2397 10.1782C5.93997 11.675 4.53583 14.6914 4.52064 14.7244C5.75781 15.6851 7.30956 16.2647 8.99965 16.2647C10.0088 16.2647 10.9701 16.0595 11.8448 15.688C11.7368 15.0522 11.3135 12.8237 10.288 10.1624ZM13.0719 15.0231C14.7082 13.9205 15.8703 12.1696 16.1945 10.1415C16.0445 10.0933 14.0057 9.44874 11.6535 9.82531C12.6093 12.4484 12.9977 14.5846 13.0719 15.0231ZM10.5676 7.24475C10.7368 7.59178 10.9006 7.94498 11.0518 8.29995C11.1056 8.42729 11.1581 8.55212 11.2093 8.67693C13.7128 8.36235 16.1792 8.89161 16.2846 8.91323C16.2679 7.18815 15.65 5.60493 14.6275 4.36543C14.6137 4.38494 13.4449 6.07136 10.5676 7.24475Z" fill="white"></path>
  </symbol>
  <symbol fill="none" xmlns="http://www.w3.org/2000/svg" viewBox="0 0 42 62" id="electricity">
    <g filter="url(#filter0_d_1_1976)">
      <path fill-rule="evenodd" clip-rule="evenodd" d="M15.3074 2.24106C15.2135 1.28264 14.3859 0.533081 13.3788 0.533081C12.3087 0.533081 11.4413 1.37926 11.4413 2.42308V7.52214C11.4413 9.19073 10.0886 10.5434 8.42004 10.5434L8.23831 10.5519C7.28143 10.6426 6.53308 11.4414 6.53308 12.4134V27.3734L6.53855 27.6948C6.70951 32.7099 10.8657 36.7234 15.9679 36.7234H16.1117C17.8126 36.7234 19.1915 38.1023 19.1915 39.8032L19.1978 40.1038C19.3542 43.7917 22.3743 46.7332 26.077 46.7332H33.5886L33.7694 46.7245C34.7217 46.6329 35.4665 45.8256 35.4665 44.8432C35.4665 43.7994 34.6257 42.9532 33.5886 42.9532H26.077L25.8628 42.9459C24.2342 42.8351 22.9472 41.4704 22.9472 39.8032C22.9472 38.1023 24.3307 36.7234 26.0316 36.7234L26.356 36.718C31.4165 36.5485 35.4664 32.4297 35.4664 27.3734V12.4134L35.4578 12.2333C35.3663 11.285 34.5603 10.5434 33.5795 10.5434C31.9109 10.5434 30.5582 9.19073 30.5582 7.52215V2.42308L30.5494 2.24106C30.4555 1.28264 29.6278 0.533081 28.6207 0.533081C27.5507 0.533081 26.6832 1.37926 26.6832 2.42308V4.85991C26.6832 7.9988 24.1386 10.5434 20.9998 10.5434C17.8609 10.5434 15.3163 7.9988 15.3163 4.85991V2.42308L15.3074 2.24106Z" fill="url(#paint0_linear_1_1976)"></path>
    </g>
    <defs>
      <filter id="filter0_d_1_1976" x="0.533081" y="0.533081" width="40.9334" height="61.2001" filterUnits="userSpaceOnUse" color-interpolation-filters="sRGB">
        <feFlood flood-opacity="0" result="BackgroundImageFix"></feFlood>
        <feColorMatrix in="SourceAlpha" type="matrix" values="0 0 0 0 0 0 0 0 0 0 0 0 0 0 0 0 0 0 127 0" result="hardAlpha"></feColorMatrix>
        <feOffset dy="9"></feOffset>
        <feGaussianBlur stdDeviation="3"></feGaussianBlur>
        <feColorMatrix type="matrix" values="0 0 0 0 0 0 0 0 0 0 0 0 0 0 0 0 0 0 0.0693564 0"></feColorMatrix>
        <feBlend mode="normal" in2="BackgroundImageFix" result="effect1_dropShadow_1_1976"></feBlend>
        <feBlend mode="normal" in="SourceGraphic" in2="effect1_dropShadow_1_1976" result="shape"></feBlend>
      </filter>
      <linearGradient id="paint0_linear_1_1976" x1="6.53308" y1="0.533081" x2="6.53308" y2="46.7332" gradientUnits="userSpaceOnUse">
        <stop stop-color="#53B9D9"></stop>
        <stop offset="0.999863" stop-color="#8DD4EA"></stop>
      </linearGradient>
    </defs>
  </symbol>
  <symbol fill="none" xmlns="http://www.w3.org/2000/svg" viewBox="0 0 162 48" id="google-play">
    <g clip-path="url(#clip0_1_2097)">
      <path d="M156 0H6.0004C2.68671 0 0.000427246 2.68628 0.000427246 5.99997V41.9998C0.000427246 45.3135 2.68671 47.9998 6.0004 47.9998H156C159.313 47.9998 162 45.3135 162 41.9998V5.99997C162 2.68628 159.313 0 156 0Z" fill="black"></path>
      <path d="M156 0.959938C157.336 0.961482 158.617 1.49301 159.562 2.43791C160.507 3.38281 161.038 4.66391 161.04 6.00015V42C161.038 43.3362 160.507 44.6173 159.562 45.5622C158.617 46.5071 157.336 47.0386 156 47.0402H6.0004C4.66414 47.0387 3.38307 46.5071 2.43821 45.5622C1.49336 44.6173 0.961899 43.3362 0.960422 42V6.00015C0.961877 4.66389 1.49333 3.38278 2.43819 2.43787C3.38305 1.49297 4.66414 0.961457 6.0004 0.959938H156ZM156 0.000183105H6.0004C4.41054 0.0048368 2.88712 0.638469 1.76292 1.76267C0.638713 2.88688 0.00508094 4.41029 0.000427246 6.00015L0.000427246 42C0.00508094 43.5898 0.638713 45.1132 1.76292 46.2374C2.88712 47.3617 4.41054 47.9953 6.0004 47.9999H156C157.59 47.9953 159.113 47.3617 160.237 46.2374C161.361 45.1132 161.995 43.5898 162 42V6.00015C161.995 4.41029 161.361 2.88688 160.237 1.76267C159.113 0.638469 157.59 0.0048368 156 0.000183105Z" fill="#A6A6A6"></path>
      <path d="M56.9022 12.2919C56.924 12.7322 56.856 13.1724 56.7023 13.5856C56.5485 13.9988 56.3123 14.3764 56.008 14.6954C55.6669 15.0491 55.255 15.3268 54.7993 15.5104C54.3435 15.6939 53.8541 15.7792 53.3631 15.7606C52.8689 15.765 52.3789 15.6706 51.9218 15.483C51.4646 15.2953 51.0496 15.0181 50.7011 14.6678C50.3527 14.3174 50.0777 13.9009 49.8925 13.4428C49.7073 12.9847 49.6155 12.4942 49.6226 12.0001C49.6156 11.5059 49.7074 11.0154 49.8926 10.5573C50.0778 10.0991 50.3528 9.68263 50.7012 9.33224C51.0497 8.98185 51.4647 8.70464 51.9218 8.51688C52.3789 8.32913 52.8689 8.23462 53.3631 8.23891C53.8711 8.23737 54.3741 8.34009 54.8409 8.54071C55.2744 8.71644 55.6603 8.99208 55.9671 9.34518L55.3342 9.97854C55.093 9.69468 54.7899 9.47003 54.4481 9.32191C54.1063 9.17379 53.7351 9.10617 53.3631 9.12427C52.9886 9.12233 52.6175 9.19599 52.2722 9.34084C51.9268 9.4857 51.6143 9.69876 51.3532 9.96727C51.0922 10.2358 50.888 10.5542 50.7529 10.9035C50.6178 11.2528 50.5546 11.6258 50.5671 12.0001C50.5582 12.5607 50.7159 13.1113 51.0204 13.5822C51.3248 14.0531 51.7622 14.4229 52.2771 14.6448C52.792 14.8668 53.3612 14.9308 53.9126 14.8288C54.4639 14.7268 54.9726 14.4634 55.374 14.072C55.7435 13.6738 55.9577 13.1563 55.9775 12.6135H53.3631V11.7487H56.8518C56.8848 11.9279 56.9017 12.1097 56.9022 12.2919Z" fill="white" stroke="white" stroke-width="0.2" stroke-miterlimit="10"></path>
      <path d="M62.4334 9.28484H59.1545V11.5676H62.1112V12.4325H59.1545V14.7153H62.4334V15.6H58.2299V8.40009H62.4334V9.28484Z" fill="white" stroke="white" stroke-width="0.2" stroke-miterlimit="10"></path>
      <path d="M66.3345 15.6H65.4087V9.28484H63.3978V8.40009H68.3455V9.28484H66.3345V15.6Z" fill="white" stroke="white" stroke-width="0.2" stroke-miterlimit="10"></path>
      <path d="M71.9255 15.6V8.40009H72.8501V15.6H71.9255Z" fill="white" stroke="white" stroke-width="0.2" stroke-miterlimit="10"></path>
      <path d="M76.954 15.6H76.0282V9.28484H74.0174V8.40009H78.965V9.28484H76.954V15.6Z" fill="white" stroke="white" stroke-width="0.2" stroke-miterlimit="10"></path>
      <path d="M88.3312 14.6695C87.6304 15.3682 86.6811 15.7606 85.6915 15.7606C84.7019 15.7606 83.7527 15.3682 83.0519 14.6695C82.7052 14.3184 82.4327 13.9011 82.2505 13.4425C82.0683 12.9839 81.9802 12.4934 81.9914 12C81.9802 11.5067 82.0683 11.0161 82.2505 10.5576C82.4327 10.099 82.7052 9.68168 83.0519 9.33053C83.3983 8.98405 83.8096 8.70929 84.2623 8.52197C84.715 8.33465 85.2002 8.23846 85.6902 8.23889C86.1801 8.23933 86.6651 8.33638 87.1175 8.5245C87.5699 8.71262 87.9807 8.98811 88.3265 9.33521C88.6734 9.68543 88.9465 10.1018 89.1295 10.5595C89.3125 11.0173 89.4016 11.5072 89.3917 12C89.4026 12.4933 89.3144 12.9838 89.1322 13.4423C88.95 13.9009 88.6776 14.3182 88.3312 14.6695ZM83.7351 14.0667C84.2541 14.5848 84.9575 14.8758 85.6909 14.8758C86.4243 14.8758 87.1278 14.5848 87.6468 14.0667C87.913 13.7942 88.1211 13.4705 88.2587 13.1153C88.3963 12.7601 88.4604 12.3807 88.4472 12C88.4604 11.6193 88.3963 11.2399 88.2587 10.8847C88.1211 10.5295 87.913 10.2059 87.6468 9.9334C87.1278 9.41525 86.4243 9.12423 85.6909 9.12423C84.9575 9.12423 84.2541 9.41525 83.7351 9.9334C83.4693 10.2061 83.2615 10.5298 83.1241 10.885C82.9868 11.2402 82.9227 11.6195 82.9359 12C82.9227 12.3806 82.9868 12.7599 83.1241 13.1151C83.2615 13.4703 83.4693 13.794 83.7351 14.0667Z" fill="white" stroke="white" stroke-width="0.2" stroke-miterlimit="10"></path>
      <path d="M90.6901 15.6V8.40009H91.8163L95.3155 14.0011H95.3553L95.3155 12.6135V8.40009H96.2413V15.6H95.2757L91.6147 9.72776H91.5749L91.6147 11.1153V15.6H90.6901Z" fill="white" stroke="white" stroke-width="0.2" stroke-miterlimit="10"></path>
      <path d="M81.763 26.1019C80.7544 26.1058 79.7695 26.4083 78.9327 26.9715C78.096 27.5346 77.4448 28.333 77.0615 29.266C76.6781 30.1989 76.5798 31.2245 76.779 32.2133C76.9781 33.202 77.4657 34.1096 78.1802 34.8215C78.8948 35.5333 79.8042 36.0175 80.7937 36.2128C81.7833 36.4082 82.8085 36.306 83.7399 35.9191C84.6714 35.5322 85.4674 34.878 86.0273 34.0391C86.5873 33.2002 86.8861 32.2142 86.8861 31.2056C86.896 30.531 86.7701 29.8613 86.5159 29.2363C86.2617 28.6114 85.8844 28.0439 85.4064 27.5678C84.9284 27.0916 84.3596 26.7164 83.7336 26.4646C83.1077 26.2128 82.4375 26.0895 81.763 26.1019ZM81.763 34.2989C81.1418 34.3431 80.5217 34.1994 79.9834 33.8863C79.4451 33.5733 79.0135 33.1054 78.7449 32.5436C78.4762 31.9818 78.3829 31.3522 78.4771 30.7366C78.5713 30.121 78.8486 29.5481 79.273 29.0924C79.6974 28.6367 80.2491 28.3193 80.8564 28.1815C81.4637 28.0438 82.0984 28.092 82.6779 28.32C83.2574 28.5481 83.7548 28.9453 84.1053 29.4599C84.4559 29.9746 84.6434 30.5829 84.6434 31.2056C84.6623 31.599 84.6022 31.9922 84.4668 32.3621C84.3314 32.7319 84.1234 33.071 83.855 33.3592C83.5866 33.6474 83.2632 33.879 82.9039 34.0404C82.5446 34.2018 82.1567 34.2897 81.763 34.2989ZM70.5869 26.1019C69.5783 26.1057 68.5934 26.4083 67.7567 26.9714C66.9199 27.5345 66.2687 28.333 65.8854 29.2659C65.502 30.1988 65.4037 31.2244 65.6028 32.2132C65.8019 33.202 66.2895 34.1096 67.0041 34.8214C67.7186 35.5333 68.628 36.0175 69.6176 36.2128C70.6071 36.4082 71.6323 36.306 72.5638 35.9191C73.4952 35.5323 74.2912 34.8781 74.8512 34.0392C75.4111 33.2003 75.71 32.2142 75.7099 31.2056C75.7199 30.531 75.594 29.8613 75.3398 29.2364C75.0856 28.6114 74.7083 28.044 74.2303 27.5678C73.7524 27.0916 73.1835 26.7165 72.5576 26.4647C71.9317 26.2128 71.2615 26.0895 70.5869 26.1019ZM70.5869 34.2989C69.9658 34.3431 69.3457 34.1994 68.8074 33.8863C68.2691 33.5733 67.8375 33.1054 67.5688 32.5436C67.3002 31.9818 67.2069 31.3522 67.3011 30.7366C67.3953 30.121 67.6726 29.5481 68.097 29.0924C68.5214 28.6367 69.0731 28.3193 69.6804 28.1815C70.2877 28.0438 70.9224 28.092 71.5019 28.32C72.0813 28.5481 72.5787 28.9453 72.9293 29.4599C73.2799 29.9746 73.4674 30.5829 73.4674 31.2056C73.4863 31.599 73.4262 31.9922 73.2908 32.3621C73.1554 32.7319 72.9474 33.071 72.679 33.3592C72.4106 33.6474 72.0872 33.8791 71.7279 34.0404C71.3686 34.2018 70.9807 34.2897 70.5869 34.2989ZM57.2924 27.6679V29.8331H62.4736C62.3989 30.8486 61.9833 31.8092 61.2943 32.559C60.7751 33.0882 60.1507 33.5027 59.4614 33.7758C58.7721 34.0488 58.0332 34.1743 57.2924 34.1442C55.778 34.1237 54.3326 33.5077 53.2689 32.4295C52.2052 31.3513 51.6089 29.8977 51.6089 28.3831C51.6089 26.8686 52.2052 25.4149 53.2689 24.3367C54.3326 23.2586 55.778 22.6426 57.2924 22.6221C58.7471 22.6031 60.1505 23.1588 61.1977 24.1686L62.7249 22.6414C62.0104 21.934 61.1618 21.3764 60.229 21.0013C59.2961 20.6261 58.2978 20.441 57.2924 20.4568C56.2418 20.4415 55.1987 20.6352 54.2236 21.0267C53.2485 21.4182 52.361 21.9996 51.6126 22.7371C50.8643 23.4747 50.27 24.3536 49.8644 25.3229C49.4588 26.2922 49.2499 27.3324 49.2499 28.3831C49.2499 29.4338 49.4588 30.4741 49.8644 31.4433C50.27 32.4126 50.8643 33.2916 51.6126 34.0291C52.361 34.7667 53.2485 35.3481 54.2236 35.7395C55.1987 36.131 56.2418 36.3247 57.2924 36.3094C58.319 36.352 59.3428 36.1758 60.2961 35.7925C61.2494 35.4092 62.1102 34.8276 62.8215 34.0862C64.0844 32.7077 64.7576 30.8897 64.6969 29.0212C64.7018 28.5674 64.6629 28.1142 64.5807 27.6679H57.2924ZM111.662 29.3497C111.355 28.4253 110.772 27.6177 109.99 27.0366C109.208 26.4556 108.267 26.1292 107.293 26.1019C106.637 26.106 105.989 26.243 105.388 26.5046C104.786 26.7663 104.244 27.1472 103.795 27.6242C103.345 28.1013 102.996 28.6646 102.77 29.2802C102.544 29.8957 102.445 30.5508 102.479 31.2056C102.465 31.8766 102.585 32.5437 102.834 33.1671C103.083 33.7905 103.455 34.3573 103.927 34.8337C104.4 35.3101 104.964 35.6863 105.586 35.9398C106.207 36.1934 106.873 36.3191 107.544 36.3094C108.385 36.3141 109.214 36.1099 109.956 35.7151C110.699 35.3203 111.331 34.7473 111.797 34.0476L110.057 32.8877C109.797 33.3205 109.428 33.6782 108.988 33.9256C108.547 34.173 108.05 34.3016 107.544 34.2989C107.024 34.3187 106.51 34.1819 106.069 33.9062C105.628 33.6304 105.28 33.2284 105.07 32.7523L111.894 29.9298L111.662 29.3497ZM104.703 31.0511C104.678 30.6796 104.729 30.3071 104.85 29.9553C104.972 29.6035 105.163 29.2795 105.411 29.0023C105.66 28.725 105.961 28.5001 106.297 28.3407C106.634 28.1813 106.998 28.0906 107.37 28.0739C107.757 28.0484 108.144 28.1375 108.481 28.33C108.817 28.5225 109.09 28.81 109.265 29.1565L104.703 31.0511ZM99.154 36.0001H101.397V20.9982H99.154V36.0001ZM95.4808 27.2425H95.4035C95.0626 26.8721 94.6465 26.5787 94.1831 26.382C93.7196 26.1853 93.2196 26.0898 92.7163 26.1019C91.4002 26.1579 90.1567 26.7201 89.2453 27.6711C88.3339 28.6222 87.8251 29.8885 87.8251 31.2057C87.8251 32.5229 88.3339 33.7892 89.2453 34.7402C90.1567 35.6912 91.4002 36.2534 92.7163 36.3094C93.2215 36.3229 93.7237 36.2261 94.1878 36.0258C94.6519 35.8255 95.0667 35.5264 95.4035 35.1495H95.4808V35.8842C95.4808 37.8368 94.4369 38.8807 92.7549 38.8807C92.1943 38.8672 91.6505 38.6873 91.1926 38.3636C90.7347 38.04 90.3835 37.5873 90.1838 37.0634L88.2312 37.8754C88.5992 38.7714 89.2263 39.5371 90.0323 40.0744C90.8382 40.6117 91.7863 40.8962 92.7549 40.8913C95.3842 40.8913 97.6074 39.3447 97.6074 35.5748V26.4112H95.4808V27.2425ZM92.9097 34.2989C92.1346 34.2331 91.4124 33.8788 90.8861 33.306C90.3598 32.7331 90.0677 31.9836 90.0677 31.2057C90.0677 30.4278 90.3598 29.6782 90.8861 29.1054C91.4124 28.5326 92.1346 28.1782 92.9097 28.1125C93.2953 28.1314 93.6732 28.2276 94.0208 28.3956C94.3685 28.5636 94.6787 28.7999 94.9331 29.0903C95.1874 29.3808 95.3807 29.7194 95.5014 30.0862C95.6221 30.4529 95.6677 30.8402 95.6355 31.2249C95.6656 31.6073 95.6184 31.9918 95.4965 32.3555C95.3746 32.7191 95.1806 33.0545 94.9262 33.3415C94.6717 33.6284 94.362 33.8611 94.0155 34.0256C93.669 34.1901 93.2929 34.2831 92.9097 34.2989ZM122.167 20.9985H116.801V36.0001H119.04V30.3164H122.167C122.8 30.3512 123.434 30.2564 124.029 30.0379C124.625 29.8195 125.169 29.4819 125.63 29.0459C126.091 28.6099 126.457 28.0845 126.708 27.5019C126.959 26.9193 127.088 26.2917 127.088 25.6575C127.088 25.0232 126.959 24.3956 126.708 23.813C126.457 23.2304 126.091 22.7051 125.63 22.269C125.169 21.833 124.625 21.4954 124.029 21.277C123.434 21.0585 122.8 20.9638 122.167 20.9985ZM122.225 28.2287H119.04V23.0863H122.225C122.567 23.0793 122.907 23.1405 123.225 23.2666C123.543 23.3926 123.833 23.5808 124.077 23.8203C124.322 24.0598 124.516 24.3456 124.649 24.6611C124.781 24.9765 124.85 25.3153 124.85 25.6575C124.85 25.9997 124.781 26.3385 124.649 26.654C124.516 26.9694 124.322 27.2553 124.077 27.4947C123.833 27.7342 123.543 27.9225 123.225 28.0485C122.907 28.1745 122.567 28.2358 122.225 28.2287ZM136.063 26.0743C135.245 26.0266 134.432 26.2185 133.722 26.6265C133.013 27.0345 132.437 27.6408 132.067 28.371L134.055 29.2009C134.252 28.8385 134.551 28.5414 134.914 28.346C135.278 28.1506 135.69 28.0654 136.101 28.1008C136.669 28.0453 137.236 28.2173 137.677 28.5791C138.119 28.9409 138.399 29.4629 138.456 30.0307V30.1852C137.737 29.8032 136.935 29.6043 136.12 29.6062C133.978 29.6062 131.797 30.7835 131.797 32.9837C131.818 33.4473 131.932 33.9021 132.132 34.321C132.332 34.7399 132.614 35.1144 132.961 35.4222C133.309 35.73 133.714 35.9649 134.154 36.1129C134.594 36.2609 135.059 36.3191 135.522 36.2839C136.086 36.3171 136.648 36.1985 137.151 35.9405C137.653 35.6826 138.077 35.2946 138.379 34.8171H138.456V35.9751H140.617V30.2238C140.617 27.5604 138.629 26.0743 136.063 26.0743ZM135.792 34.296C135.059 34.296 134.036 33.9294 134.036 33.0222C134.036 31.8643 135.31 31.4203 136.41 31.4203C137.125 31.4013 137.831 31.5746 138.456 31.9221C138.373 32.5728 138.058 33.1717 137.569 33.6081C137.079 34.0445 136.448 34.2888 135.792 34.296ZM148.492 26.4024L145.925 32.9064H145.847L143.184 26.4024H140.772L144.767 35.4926L142.489 40.5491H144.825L150.981 26.4024H148.492ZM128.323 36.0001H130.562V20.9985H128.323V36.0001Z" fill="white"></path>
      <path d="M12.5227 9.04568C12.1292 9.51616 11.9305 10.1193 11.9674 10.7315V37.2707C11.9304 37.883 12.1291 38.4862 12.5227 38.9566L12.6115 39.0431L27.4783 24.1765V23.8258L12.6115 8.95856L12.5227 9.04568Z" fill="url(#paint0_linear_1_2097)"></path>
      <path d="M32.4335 29.1342L27.4783 24.1765V23.8258L32.4347 18.8693L32.5464 18.933L38.4178 22.2691C40.0949 23.2219 40.0949 24.781 38.4178 25.7344L32.5464 29.0705L32.4335 29.1342Z" fill="url(#paint1_linear_1_2097)"></path>
      <path d="M32.5464 29.0699L27.4782 24.0012L12.5227 38.9566C12.8644 39.258 13.3008 39.4304 13.7563 39.4438C14.2117 39.4573 14.6575 39.311 15.0164 39.0303L32.5464 29.0699Z" fill="url(#paint2_linear_1_2097)"></path>
      <path d="M32.5464 18.9324L15.0164 8.97199C14.6575 8.6913 14.2117 8.54501 13.7563 8.55847C13.3008 8.57193 12.8644 8.74428 12.5227 9.04567L27.4782 24.0012L32.5464 18.9324Z" fill="url(#paint3_linear_1_2097)"></path>
      <path opacity="0.2" d="M32.4347 28.9583L15.0164 38.855C14.6713 39.1177 14.2501 39.261 13.8164 39.2633C13.3827 39.2656 12.96 39.1268 12.6121 38.8678L12.5227 38.9572L12.6115 39.0437L12.6121 39.0431C12.9599 39.3023 13.3827 39.4412 13.8164 39.4389C14.2502 39.4366 14.6714 39.2931 15.0164 39.0303L32.5464 29.0699L32.4347 28.9583Z" fill="black"></path>
      <path opacity="0.12" d="M12.5227 38.7819C12.1292 38.3114 11.9306 37.7082 11.9673 37.096V37.2713C11.9305 37.8836 12.1292 38.4867 12.5227 38.9572L12.6121 38.8678L12.5227 38.7819Z" fill="black"></path>
      <path opacity="0.12" d="M38.4177 25.5585L32.4347 28.9583L32.5464 29.0699L38.4177 25.7338C38.7631 25.5839 39.062 25.3442 39.2832 25.0395C39.5045 24.7349 39.64 24.3765 39.6757 24.0017C39.6015 24.3411 39.4491 24.6586 39.2307 24.9288C39.0124 25.199 38.734 25.4146 38.4177 25.5585Z" fill="black"></path>
      <path opacity="0.25" d="M15.0164 9.14792L38.4177 22.4439C38.7341 22.5877 39.0126 22.8033 39.231 23.0737C39.4493 23.3441 39.6016 23.6617 39.6757 24.0012C39.6402 23.6263 39.5048 23.2677 39.2836 22.9629C39.0623 22.6582 38.7633 22.4184 38.4177 22.2685L15.0164 8.9726C13.3393 8.01969 11.9673 8.8112 11.9673 10.7322V10.9075C11.9673 8.98664 13.3393 8.19513 15.0164 9.14792Z" fill="white"></path>
    </g>
    <defs>
      <linearGradient id="paint0_linear_1_2097" x1="26.1599" y1="10.4517" x2="6.02108" y2="30.5905" gradientUnits="userSpaceOnUse">
        <stop stop-color="#00A0FF"></stop>
        <stop offset="0.00657" stop-color="#00A1FF"></stop>
        <stop offset="0.2601" stop-color="#00BEFF"></stop>
        <stop offset="0.5122" stop-color="#00D2FF"></stop>
        <stop offset="0.7604" stop-color="#00DFFF"></stop>
        <stop offset="1" stop-color="#00E3FF"></stop>
      </linearGradient>
      <linearGradient id="paint1_linear_1_2097" x1="40.6014" y1="24.0018" x2="11.5652" y2="24.0018" gradientUnits="userSpaceOnUse">
        <stop stop-color="#FFE000"></stop>
        <stop offset="0.4087" stop-color="#FFBD00"></stop>
        <stop offset="0.7754" stop-color="#FFA500"></stop>
        <stop offset="1" stop-color="#FF9C00"></stop>
      </linearGradient>
      <linearGradient id="paint2_linear_1_2097" x1="29.7925" y1="26.7553" x2="2.48268" y2="54.0651" gradientUnits="userSpaceOnUse">
        <stop stop-color="#FF3A44"></stop>
        <stop offset="1" stop-color="#C31162"></stop>
      </linearGradient>
      <linearGradient id="paint3_linear_1_2097" x1="8.75704" y1="0.211526" x2="20.952" y2="12.4065" gradientUnits="userSpaceOnUse">
        <stop stop-color="#32A071"></stop>
        <stop offset="0.0685" stop-color="#2DA771"></stop>
        <stop offset="0.4762" stop-color="#15CF74"></stop>
        <stop offset="0.8009" stop-color="#06E775"></stop>
        <stop offset="1" stop-color="#00F076"></stop>
      </linearGradient>
      <clipPath id="clip0_1_2097">
        <rect width="161.999" height="48" fill="white" transform="translate(0.000427246)"></rect>
      </clipPath>
    </defs>
  </symbol>
  <symbol fill="none" xmlns="http://www.w3.org/2000/svg" viewBox="0 0 48 60" id="heat">
    <g clip-path="url(#clip0_1_2013)">
      <path d="M24 21.7083L26.9167 28.58C26.9167 29.3639 26.6094 30.1156 26.0624 30.6699C25.5155 31.2242 24.7736 31.5356 24 31.5356C23.2265 31.5356 22.4846 31.2242 21.9376 30.6699C21.3907 30.1156 21.0834 29.3639 21.0834 28.58L24 21.7083ZM42.9584 3.177H5.04171C4.65493 3.177 4.284 3.3327 4.01051 3.60983C3.73702 3.88697 3.58337 4.26285 3.58337 4.65478V9.08811C3.58337 9.48004 3.73702 9.85592 4.01051 10.1331C4.284 10.4102 4.65493 10.5659 5.04171 10.5659H42.9584C43.3451 10.5659 43.7161 10.4102 43.9896 10.1331C44.2631 9.85592 44.4167 9.48004 44.4167 9.08811V4.65478C44.4167 4.26285 44.2631 3.88697 43.9896 3.60983C43.7161 3.3327 43.3451 3.177 42.9584 3.177ZM41.5 34.2103V12.0437H24C27.481 12.0437 30.8194 13.4449 33.2808 15.9391C35.7422 18.4334 37.125 21.8163 37.125 25.3437V34.2103H41.5ZM24 14.9992C21.2926 14.9992 18.6961 16.0891 16.7817 18.029C14.8672 19.969 13.7917 22.6001 13.7917 25.3437V34.2103H24C22.4529 34.2103 20.9692 33.5876 19.8752 32.479C18.7813 31.3705 18.1667 29.8669 18.1667 28.2992C18.1689 28.0965 18.2085 27.8961 18.2834 27.7081L22.6584 17.3637C22.7704 17.0971 22.9574 16.8698 23.1959 16.71C23.4345 16.5502 23.7141 16.4651 24 16.4651C24.286 16.4651 24.5656 16.5502 24.8042 16.71C25.0427 16.8698 25.2296 17.0971 25.3417 17.3637L29.7167 27.7081C29.7916 27.8961 29.8312 28.0965 29.8334 28.2992C29.8334 29.8669 29.2188 31.3705 28.1248 32.479C27.0309 33.5876 25.5471 34.2103 24 34.2103H34.2084V25.3437C34.2084 22.6001 33.1329 19.969 31.2184 18.029C29.304 16.0891 26.7075 14.9992 24 14.9992ZM6.50004 34.2103H10.875V25.3437C10.875 21.8163 12.2578 18.4334 14.7193 15.9391C17.1807 13.4449 20.5191 12.0437 24 12.0437H6.50004V34.2103ZM42.9584 35.6881H5.04171C4.65493 35.6881 4.284 35.8438 4.01051 36.1209C3.73702 36.3981 3.58337 36.774 3.58337 37.1659V43.077C3.58337 43.4689 3.73702 43.8448 4.01051 44.1219C4.284 44.3991 4.65493 44.5548 5.04171 44.5548H42.9584C43.3451 44.5548 43.7161 44.3991 43.9896 44.1219C44.2631 43.8448 44.4167 43.4689 44.4167 43.077V37.1659C44.4167 36.774 44.2631 36.3981 43.9896 36.1209C43.7161 35.8438 43.3451 35.6881 42.9584 35.6881Z" fill="url(#paint0_linear_1_2013)"></path>
    </g>
    <defs>
      <linearGradient id="paint0_linear_1_2013" x1="24" y1="3.177" x2="24" y2="44.5548" gradientUnits="userSpaceOnUse">
        <stop stop-color="#FF002E"></stop>
        <stop offset="1" stop-color="#FF3E3E"></stop>
      </linearGradient>
      <clipPath id="clip0_1_2013">
        <rect x="0.666748" y="0.22168" width="46.6667" height="59.1111" rx="14" fill="white"></rect>
      </clipPath>
    </defs>
  </symbol>
  <symbol fill="none" xmlns="http://www.w3.org/2000/svg" viewBox="0 0 18 18" id="instagram">
    <path fill-rule="evenodd" clip-rule="evenodd" d="M9.00081 0.466675C6.68327 0.466675 6.39243 0.476808 5.48219 0.518231C4.57374 0.559831 3.95364 0.703655 3.41106 0.914679C2.84981 1.13264 2.37372 1.4242 1.8994 1.89869C1.42473 2.37301 1.13317 2.8491 0.914502 3.41017C0.702944 3.95293 0.558942 4.57321 0.518053 5.4813C0.477342 6.39154 0.466675 6.68256 0.466675 9.0001C0.466675 11.3176 0.476986 11.6076 0.518231 12.5178C0.560009 13.4263 0.703833 14.0464 0.914679 14.589C1.13282 15.1502 1.42437 15.6263 1.89887 16.1006C2.37301 16.5753 2.8491 16.8676 3.40999 17.0855C3.95293 17.2965 4.57321 17.4404 5.48148 17.482C6.39171 17.5234 6.68238 17.5335 8.99974 17.5335C11.3175 17.5335 11.6074 17.5234 12.5176 17.482C13.4261 17.4404 14.0469 17.2965 14.5898 17.0855C15.1509 16.8676 15.6263 16.5753 16.1004 16.1006C16.5751 15.6263 16.8667 15.1502 17.0853 14.5891C17.2951 14.0464 17.4391 13.4261 17.4818 12.518C17.5227 11.6078 17.5333 11.3176 17.5333 9.0001C17.5333 6.68256 17.5227 6.39171 17.4818 5.48148C17.4391 4.57303 17.2951 3.95293 17.0853 3.41035C16.8667 2.8491 16.5751 2.37301 16.1004 1.89869C15.6258 1.42402 15.1511 1.13246 14.5893 0.914679C14.0453 0.703655 13.4249 0.559831 12.5164 0.518231C11.6062 0.476808 11.3164 0.466675 8.99814 0.466675H9.00081ZM8.23525 2.00444C8.46245 2.00409 8.71597 2.00444 9.00077 2.00444C11.2792 2.00444 11.5492 2.01262 12.449 2.05351C13.281 2.09156 13.7326 2.23058 14.0334 2.34738C14.4316 2.50205 14.7155 2.68694 15.014 2.98561C15.3127 3.28428 15.4976 3.56873 15.6526 3.96695C15.7694 4.2674 15.9086 4.71896 15.9464 5.55097C15.9873 6.45054 15.9962 6.72076 15.9962 8.99812C15.9962 11.2755 15.9873 11.5457 15.9464 12.4453C15.9084 13.2773 15.7694 13.7288 15.6526 14.0293C15.4979 14.4275 15.3127 14.7111 15.014 15.0096C14.7153 15.3082 14.4318 15.4931 14.0334 15.6478C13.7329 15.7651 13.281 15.9038 12.449 15.9418C11.5494 15.9827 11.2792 15.9916 9.00077 15.9916C6.72217 15.9916 6.45212 15.9827 5.55256 15.9418C4.72055 15.9034 4.26899 15.7644 3.96801 15.6476C3.56978 15.4929 3.28533 15.3081 2.98666 15.0094C2.68799 14.7107 2.5031 14.427 2.34808 14.0286C2.23128 13.7281 2.09208 13.2766 2.05421 12.4446C2.01332 11.545 2.00514 11.2748 2.00514 8.99598C2.00514 6.7172 2.01332 6.4484 2.05421 5.54884C2.09226 4.71683 2.23128 4.26527 2.34808 3.96447C2.50275 3.56624 2.68799 3.28179 2.98666 2.98312C3.28533 2.68445 3.56978 2.49956 3.96801 2.34454C4.26881 2.2272 4.72055 2.08853 5.55256 2.05031C6.33977 2.01476 6.64484 2.00409 8.23525 2.00231V2.00444ZM13.5558 3.42135C12.9905 3.42135 12.5318 3.87949 12.5318 4.44501C12.5318 5.01035 12.9905 5.46902 13.5558 5.46902C14.1212 5.46902 14.5799 5.01035 14.5799 4.44501C14.5799 3.87967 14.1212 3.42135 13.5558 3.42135ZM9.00082 4.61781C6.58071 4.61781 4.61855 6.57996 4.61855 9.00007C4.61855 11.4202 6.58071 13.3815 9.00082 13.3815C11.4209 13.3815 13.3824 11.4202 13.3824 9.00007C13.3824 6.57996 11.4209 4.61781 9.00082 4.61781ZM9.00079 6.1556C10.5717 6.1556 11.8453 7.42903 11.8453 9.00007C11.8453 10.5709 10.5717 11.8445 9.00079 11.8445C7.42975 11.8445 6.15632 10.5709 6.15632 9.00007C6.15632 7.42903 7.42975 6.1556 9.00079 6.1556Z" fill="white"></path>
  </symbol>
  <symbol fill="none" xmlns="http://www.w3.org/2000/svg" viewBox="0 0 60 75" id="light">
    <g clip-path="url(#clip0_1_1996)">
      <path d="M22.8694 50.7331H37.13C36.7046 52.3148 35.7759 53.7112 34.4873 54.7067C33.1987 55.7022 31.6217 56.2416 29.9997 56.2416C28.3776 56.2416 26.8007 55.7022 25.512 54.7067C24.2234 53.7112 23.2948 52.3148 22.8694 50.7331ZM46.4584 46.2344L39.2358 29.8077V20.8664C39.2358 20.3713 39.0412 19.8965 38.6948 19.5465C38.3483 19.1964 37.8785 18.9997 37.3886 18.9997H31.8469V5.93307C31.8469 5.438 31.6523 4.96321 31.3059 4.61314C30.9594 4.26307 30.4896 4.06641 29.9997 4.06641C29.5098 4.06641 29.0399 4.26307 28.6935 4.61314C28.3471 4.96321 28.1525 5.438 28.1525 5.93307V18.9997H22.6108C22.1209 18.9997 21.651 19.1964 21.3046 19.5465C20.9582 19.8965 20.7636 20.3713 20.7636 20.8664V29.8077L13.5409 46.2344C13.4146 46.5184 13.3606 46.8298 13.3838 47.1402C13.407 47.4507 13.5066 47.7504 13.6737 48.012C13.8408 48.2736 14.07 48.4888 14.3404 48.638C14.6108 48.7872 14.9138 48.8658 15.2219 48.8664H44.7775C45.0856 48.8658 45.3886 48.7872 45.659 48.638C45.9294 48.4888 46.1586 48.2736 46.3257 48.012C46.4927 47.7504 46.5924 47.4507 46.6156 47.1402C46.6388 46.8298 46.5848 46.5184 46.4584 46.2344Z" fill="url(#paint0_linear_1_1996)"></path>
    </g>
    <defs>
      <linearGradient id="paint0_linear_1_1996" x1="29.9997" y1="4.06641" x2="29.9997" y2="56.2416" gradientUnits="userSpaceOnUse">
        <stop stop-color="#FFB800"></stop>
        <stop offset="1" stop-color="#E3DE67"></stop>
      </linearGradient>
      <clipPath id="clip0_1_1996">
        <rect x="0.444153" y="0.333252" width="59.1111" height="74.6667" rx="14" fill="white"></rect>
      </clipPath>
    </defs>
  </symbol>
</svg>